<?xml version="1.0" encoding="UTF-8" standalone="no"?>
<svg
   xmlns:dc="http://purl.org/dc/elements/1.1/"
   xmlns:cc="http://creativecommons.org/ns#"
   xmlns:rdf="http://www.w3.org/1999/02/22-rdf-syntax-ns#"
   xmlns:svg="http://www.w3.org/2000/svg"
   xmlns="http://www.w3.org/2000/svg"
   xmlns:sodipodi="http://sodipodi.sourceforge.net/DTD/sodipodi-0.dtd"
   xmlns:inkscape="http://www.inkscape.org/namespaces/inkscape"
   version="1.1"
   x="0px"
   y="0px"
   viewBox="0 0 128 128"
   xml:space="preserve"
   id="svg22"
   sodipodi:docname="go-to-garden2.svg"
   width="128"
   height="128"
   inkscape:version="0.92.1 r15371"><metadata
     id="metadata28"><rdf:RDF><cc:Work
         rdf:about=""><dc:format>image/svg+xml</dc:format><dc:type
           rdf:resource="http://purl.org/dc/dcmitype/StillImage" /><dc:title></dc:title></cc:Work></rdf:RDF></metadata><defs
     id="defs26" /><sodipodi:namedview
     pagecolor="#ffffff"
     bordercolor="#666666"
     borderopacity="1"
     objecttolerance="10"
     gridtolerance="10"
     guidetolerance="10"
     inkscape:pageopacity="0"
     inkscape:pageshadow="2"
     inkscape:window-width="1832"
     inkscape:window-height="953"
     id="namedview24"
     showgrid="false"
     inkscape:zoom="5.3400704"
     inkscape:cx="57.488925"
     inkscape:cy="60.182733"
     inkscape:window-x="0"
     inkscape:window-y="0"
     inkscape:window-maximized="0"
     inkscape:current-layer="svg22"
     inkscape:pagecheckerboard="true" /><style
     type="text/css"
     id="style2">
	.st0{fill:none;}
</style><g
     id="g16"
     transform="translate(15.360169,13.063559)"><g
       id="g6"><path
         d="M 50,91.2 C 27.3,91.2 8.8,72.7 8.8,50 8.8,27.3 27.3,8.8 50,8.8 72.7,8.8 91.2,27.3 91.2,50 91.2,72.7 72.7,91.2 50,91.2 Z m 0,-80 C 28.6,11.2 11.2,28.6 11.2,50 11.2,71.4 28.6,88.8 50,88.8 71.4,88.8 88.8,71.4 88.8,50 88.8,28.6 71.4,11.2 50,11.2 Z"
         id="path4"
         inkscape:connector-curvature="0" /></g><g
       id="g14"><path
         class="st0"
         d="m 42.9,72.3 c 0.2,0.7 0.4,1.1 0.6,1.1 h 12.7 c 0.3,0 0.6,-0.8 0.6,-1.2 L 59.4,59 H 40.5 Z"
         id="path8"
         inkscape:connector-curvature="0"
         style="fill:none" /><rect
         x="38.799999"
         y="54.400002"
         class="st0"
         width="22.4"
         height="3"
         id="rect10"
         style="fill:none" /><path
         d="M 62,52.7 H 51.3 v -0.8 c 1.4,-0.8 2.4,-2.1 2.4,-3.6 0,-0.5 -0.1,-1 -0.3,-1.4 0.4,0.1 0.8,0.1 1.3,0.1 2.9,0 5.3,-1.9 5.3,-4.3 0,-2.4 -2.4,-4.3 -5.3,-4.3 -1.4,0 -2.7,0.5 -3.6,1.2 l -0.1,-2 c 0.2,0.1 0.4,0.1 0.6,0.1 2.1,0 3.9,-1.6 3.9,-3.4 0,-1.2 -0.7,-2.3 -1.8,-2.9 0.9,-0.5 1.5,-1.4 1.5,-2.5 0,-1.6 -1.2,-2.8 -2.8,-2.8 -0.7,0 -1.4,0.3 -1.9,0.7 C 50.1,25.7 49.1,25 48,25 c -1.4,0 -2.5,1 -2.8,2.3 -1.6,0.5 -2.8,1.8 -2.8,3.3 0,1.9 1.8,3.4 3.9,3.4 0.5,0 0.9,-0.1 1.3,-0.2 0,0.1 0,0.2 0,0.3 0,1.1 0.6,2.1 1.6,2.8 l 0.1,2.1 c -0.7,-0.5 -1.6,-0.8 -2.5,-0.8 -2.1,0 -3.9,1.6 -3.9,3.4 0,0.3 0.1,0.7 0.2,1 -0.1,0 -0.2,0 -0.4,0 -2.1,0 -3.9,1.6 -3.9,3.4 0,1.9 1.8,3.4 3.9,3.4 0.2,0 0.5,0 0.6,-0.1 0.7,1.8 2.7,3 5,3 0.5,0 0.8,-0.1 1.2,-0.1 v 0.3 H 38 c -0.5,0 -0.8,0.4 -0.8,0.8 V 58 c 0,0.5 0.4,0.8 0.8,0.8 h 0.8 l 2.4,13.6 c 0.4,1.6 1.2,2.4 2.3,2.4 h 12.7 c 1.6,0 2.1,-1.9 2.3,-2.5 L 61.1,59 H 62 c 0.5,0 0.8,-0.4 0.8,-0.8 V 53.5 C 62.9,53 62.5,52.7 62,52.7 Z M 48.1,26.6 c 0.6,0 1.1,0.5 1.1,1.1 0,0.6 -0.5,1.1 -1.1,1.1 -0.6,0 -1.1,-0.5 -1.1,-1.1 -0.1,-0.6 0.5,-1.1 1.1,-1.1 z m 4.3,0.8 c 0.6,0 1.1,0.5 1.1,1.1 0,0.6 -0.5,1.1 -1.1,1.1 -0.6,0 -1.1,-0.5 -1.1,-1.1 0,-0.6 0.5,-1.1 1.1,-1.1 z m -6.9,1.5 c 0.5,1 1.4,1.7 2.6,1.7 0.2,0 0.4,0 0.6,-0.1 -0.1,1 -1,1.8 -2.2,1.8 -1.2,0 -2.2,-0.8 -2.2,-1.8 -0.1,-0.8 0.4,-1.3 1.2,-1.6 z m 6.1,3.4 c 1.2,0 2.2,0.8 2.2,1.8 0,1 -1,1.8 -2.2,1.8 -1.2,0 -2.2,-0.8 -2.2,-1.8 0,-1 1,-1.8 2.2,-1.8 z m -6.8,15.9 c 0,-1.4 1.6,-2.6 3.6,-2.6 2,0 3.6,1.2 3.6,2.6 0,1.4 -1.7,2.6 -3.7,2.6 -2,0 -3.5,-1.1 -3.5,-2.6 z m -2.1,-0.3 c -1.2,0 -2.2,-0.8 -2.2,-1.8 0,-1 1,-1.8 2.2,-1.8 0.8,0 1.5,0.4 1.9,0.9 -0.8,0.7 -1.4,1.6 -1.5,2.6 -0.2,0.1 -0.3,0.1 -0.4,0.1 z m 4.1,-8.1 c 1.2,0 2.2,0.8 2.2,1.8 0,1 -1,1.8 -2.2,1.8 -1.2,0 -2.2,-0.7 -2.2,-1.7 0,-1 0.9,-1.9 2.2,-1.9 z m 7.8,0.2 c 2,0 3.6,1.2 3.6,2.6 0,1.4 -1.6,2.6 -3.6,2.6 C 52.6,45.2 51,44 51,42.6 51,41.2 52.7,40 54.6,40 Z M 38.8,54.4 h 22.4 v 3 H 38.8 Z m 18,17.8 c -0.1,0.3 -0.3,1.2 -0.6,1.2 H 43.5 c -0.2,0 -0.5,-0.5 -0.6,-1.1 L 40.5,59.1 h 18.9 z"
         id="path12"
         inkscape:connector-curvature="0" /></g></g><path
     style="fill:#ffffff"
     d="M 57.256356,100.73313 C 45.299236,98.100863 35.950252,90.52044 30.460593,79.006356 20.155325,57.39195 32.797212,31.448414 56.495704,25.577397 c 4.892765,-1.212124 13.045997,-1.130239 18.17906,0.182578 22.219664,5.682833 34.635816,28.971438 26.837716,50.338724 -2.614101,7.162816 -8.433555,14.714098 -14.533359,18.858388 -3.27794,2.227071 -9.276498,4.779687 -13.407831,5.705533 -4.523275,1.01369 -11.88599,1.04551 -16.314934,0.0705 z M 73.068797,87.301615 c 0.639872,-0.707049 3.469754,-12.60136 3.517301,-14.783607 0.0016,-0.07283 0.360406,-0.132415 0.797377,-0.132415 0.624728,0 0.794491,-0.73564 0.794491,-3.442796 V 65.5 h -5.599883 -5.599884 l 1.097765,-1.395582 c 0.603771,-0.76757 1.097765,-1.959307 1.097765,-2.648305 0,-1.031501 0.273427,-1.252723 1.548345,-1.252723 2.153074,0 4.807587,-2.32618 4.807587,-4.212942 0,-3.304515 -4.077538,-5.683612 -7.516439,-4.385572 -0.818289,0.30887 -1.487798,0.367254 -1.487798,0.129743 0,-0.237511 0.697392,-0.674951 1.54976,-0.972088 0.852369,-0.297137 1.946693,-1.146043 2.431831,-1.886458 0.788158,-1.20288 0.799535,-1.511654 0.106868,-2.90014 -0.470879,-0.943899 -0.597012,-1.835129 -0.321298,-2.270228 1.390341,-2.194067 -0.291232,-4.930458 -2.803306,-4.561764 -0.864925,0.126945 -1.764107,-0.07966 -2.098085,-0.48208 -0.321454,-0.387329 -1.182094,-0.704234 -1.912533,-0.704234 -1.68924,0 -5.957475,4.03172 -5.957475,5.627356 0,1.699482 1.645983,3.397795 3.418663,3.527348 1.192899,0.08718 1.7909,0.550142 2.515889,1.947755 0.523073,1.008365 0.951042,1.902168 0.951042,1.986229 0,0.08406 -0.95339,0.152838 -2.118644,0.152838 -2.331144,0 -4.237289,1.403777 -4.237289,3.120546 0,0.625606 -0.494812,1.126092 -1.317452,1.332562 -0.724599,0.181863 -1.704263,0.921008 -2.177032,1.642544 -1.273271,1.943258 -0.591105,3.813144 1.786992,4.898323 1.084778,0.495008 2.646066,1.441557 3.469529,2.103444 L 61.310091,65.5 h -4.542758 -4.542757 v 3.177966 c 0,2.405313 0.184485,3.177966 0.758799,3.177966 0.935673,0 1.035421,0.338426 2.415853,8.196542 0.648974,3.694284 1.469477,6.73528 1.965014,7.282839 0.732908,0.809856 1.818753,0.940111 7.837029,0.940111 6.109079,0 7.096893,-0.122267 7.867526,-0.973809 z"
     id="path14"
     inkscape:connector-curvature="0" /><path
     style="fill:#afe9dd;stroke-width:0.529661"
     d="m 67.511008,57.058607 c -1.016783,-0.834412 -1.1412,-1.205526 -0.665889,-1.986229 0.876072,-1.438958 3.087785,-2.061375 4.705609,-1.324245 1.956662,0.891515 2.27727,2.188359 0.830615,3.35979 -1.5543,1.258594 -3.298079,1.240937 -4.870335,-0.04932 z"
     id="path4539"
     inkscape:connector-curvature="0" /><path
     style="fill:#afe9dd;stroke-width:0.529661"
     d="m 65.204356,48.026177 c -0.684809,-1.108044 0.209937,-2.123635 1.870944,-2.123635 1.400318,0 1.617494,0.175685 1.473191,1.191738 -0.119448,0.84105 -0.583152,1.239635 -1.575802,1.354507 -0.773602,0.08952 -1.569352,-0.100651 -1.768333,-0.42261 z"
     id="path4541"
     inkscape:connector-curvature="0" /><path
     style="fill:#afe9dd;stroke-width:0.529661"
     d="m 67.143362,41.665254 c 0.0971,-0.291313 0.414901,-0.529661 0.706214,-0.529661 0.291314,0 0.60911,0.238348 0.706215,0.529661 0.0971,0.291314 -0.220692,0.529661 -0.706215,0.529661 -0.485522,0 -0.803319,-0.238347 -0.706214,-0.529661 z"
     id="path4543"
     inkscape:connector-curvature="0" /><path
     style="fill:#afe9dd;stroke-width:0.529661"
     d=""
     id="path4545"
     inkscape:connector-curvature="0" /><path
     style="fill:#afe9dd;stroke-width:0.529661"
     d="m 60.352265,44.025886 c -0.420716,-1.09637 0.210507,-1.649555 0.991308,-0.868753 0.344721,0.344721 1.069858,0.626765 1.611415,0.626765 0.541557,0 0.837342,0.238348 0.6573,0.529661 -0.513592,0.831009 -2.911957,0.619371 -3.260023,-0.287673 z"
     id="path4547"
     inkscape:connector-curvature="0" /><path
     style="fill:#afe9dd;stroke-width:0.529661"
     d="m 60.360981,55.17148 c -0.448592,-1.169012 0.471537,-1.982155 1.998481,-1.766112 0.840632,0.118939 1.252826,0.525788 1.252826,1.236581 0,1.383931 -2.751481,1.832056 -3.251307,0.529531 z"
     id="path4549"
     inkscape:connector-curvature="0" /><path
     style="fill:#afe9dd;stroke-width:0.529661"
     d="m 56.461864,59.938559 c -0.803883,-0.96862 0.125449,-2.383474 1.565561,-2.383474 1.418385,0 1.626303,0.54572 0.72943,1.914522 -0.963989,1.471233 -1.390792,1.558445 -2.294991,0.468952 z"
     id="path4551"
     inkscape:connector-curvature="0" /><path
     style="fill:#afe9dd;stroke-width:0.529661"
     d="m 61.334746,62.745763 c -1.642498,-1.642498 -0.259536,-3.601695 2.542373,-3.601695 2.086425,0 3.177966,0.757677 3.177966,2.205941 0,1.77397 -4.294316,2.821776 -5.720339,1.395754 z"
     id="path4553"
     inkscape:connector-curvature="0" /><path
     style="fill:#ffffff"
     d="m 57.581546,80.148719 c -0.615825,-3.304433 -1.119682,-6.40295 -1.119682,-6.885593 0,-0.782659 0.977343,-0.877533 9.03993,-0.877533 8.360367,0 9.019405,0.06968 8.766885,0.926907 -0.150175,0.509799 -0.54207,2.476165 -0.87088,4.369703 -0.328809,1.893539 -0.837619,4.574947 -1.13069,5.958687 l -0.532855,2.51589 h -6.516513 -6.516514 z"
     id="path4555"
     inkscape:connector-curvature="0" /><path
     style="fill:#ffccaa;stroke-width:0.529661"
     d="m 57.857878,80.727754 c -0.498872,-2.985964 -1.017902,-5.950576 -1.153402,-6.588027 -0.215997,-1.01615 0.03736,-1.20155 2.055567,-1.504198 2.817159,-0.422459 14.425346,-0.125887 14.930699,0.381457 0.200817,0.20161 -0.170583,3.24054 -0.825335,6.753178 l -1.190459,6.386616 h -6.455015 -6.455016 z"
     id="path4557"
     inkscape:connector-curvature="0" /><path
     style="fill:#ffe6d5;stroke-width:0.529661"
     d="M 59.904661,100.98276 C 50.554708,99.81215 41.091148,94.274481 35.234358,86.546764 23.653801,71.266842 24.569982,50.841662 37.46046,36.918406 55.451299,17.486154 88.067887,22.339048 99.62331,46.167373 c 2.93377,6.049695 3.87971,10.10823 3.88869,16.684322 0.0152,11.148063 -4.195575,20.593956 -12.797895,28.708946 -7.638104,7.205402 -19.511764,10.836599 -30.809444,9.422119 z M 71.950077,87.942728 c 1.270352,-0.340472 2.311851,-3.208544 4.083316,-11.244604 0.472505,-2.143468 1.207918,-4.246033 1.634252,-4.672367 0.49004,-0.49004 0.775152,-1.832728 0.775152,-3.650455 V 65.5 h -5.484134 -5.484134 l 1.267432,-2.648305 c 0.990987,-2.070672 1.539792,-2.648305 2.51613,-2.648305 1.703446,0 4.556129,-3.273902 4.257434,-4.886073 -0.385374,-2.080014 -3.155079,-4.118164 -5.596299,-4.118164 h -2.150927 l 1.545775,-1.300684 c 1.483878,-1.248601 1.541452,-1.464138 1.437834,-5.382721 -0.119007,-4.500571 -0.754739,-5.498799 -3.501968,-5.498799 -0.801069,0 -1.603796,-0.238347 -1.783838,-0.529661 -1.080973,-1.749051 -5.100008,0.364611 -7.416907,3.900645 -0.925185,1.41201 -0.922338,1.499547 0.09299,2.85947 0.576067,0.771578 1.801157,1.598189 2.722424,1.836913 1.059695,0.274595 1.969339,1.003177 2.476184,1.983307 1.07965,2.087812 1.059525,2.13153 -0.981229,2.13153 -1.880174,0 -4.573548,1.702318 -4.573548,2.890662 0,0.382323 -0.592549,1.083385 -1.316776,1.557916 -0.724227,0.474532 -1.694556,1.439351 -2.156288,2.144043 -1.164309,1.77696 -0.457944,2.864379 3.493772,5.378507 l 3.245597,2.064888 -4.546289,0.153037 -4.546287,0.153037 v 2.54664 c 0,1.703718 0.319509,2.915039 0.965303,3.659645 0.590146,0.680443 1.439797,3.538837 2.186208,7.354834 1.364196,6.974391 1.904801,8.490477 3.145804,8.822167 1.338462,0.357733 12.37144,0.372399 13.693016,0.01822 z"
     id="path5102"
     inkscape:connector-curvature="0" /><path
     style="fill:#ffffff;stroke-width:0.2648305"
     d="m 54.363925,68.942797 v -1.324153 h 10.990466 10.990466 v 1.324153 1.324152 H 65.354391 54.363925 Z"
     id="path5106"
     inkscape:connector-curvature="0" /><path
     style="fill:#ffffff;stroke-width:0.09363172"
     d="m 58.522827,85.98194 c -0.119893,-0.255447 -0.618484,-2.778319 -1.39245,-7.045788 -0.663125,-3.656318 -1.196298,-6.658589 -1.184828,-6.671712 0.01147,-0.01312 4.233852,-0.01312 9.383074,0 l 9.36222,0.02386 -1.326837,6.647852 c -0.72976,3.656319 -1.401236,6.826924 -1.492169,7.045788 l -0.165332,0.397935 h -6.498456 -6.498455 z m 13.761545,-2.9494 c 0.853084,-4.565731 1.193228,-6.615885 1.376178,-8.294677 0.17452,-1.601421 0.15455,-1.735521 -0.275568,-1.850552 -1.068848,-0.285854 -6.169469,-0.494196 -10.595481,-0.432786 -3.740959,0.0519 -4.859067,0.162807 -5.669212,0.562315 -0.368883,0.181907 -0.42484,0.249471 -0.449434,0.542648 -0.01545,0.184179 0.139321,1.27967 0.343937,2.434425 0.204616,1.154755 0.677842,3.921861 1.051614,6.149126 l 0.679585,4.049572 h 6.473968 6.473968 z"
     id="path5108"
     inkscape:connector-curvature="0" /><path
     style="fill:#ffffff;stroke-width:0.09363172"
     d="m 62.478847,63.669463 c -1.757989,-0.473294 -2.685813,-1.88208 -2.093525,-3.17876 0.182271,-0.399042 0.844956,-1.063679 1.290042,-1.293842 1.228158,-0.635105 3.141661,-0.593222 4.315084,0.09445 0.742526,0.43515 1.337106,1.307668 1.335177,1.95931 -0.002,0.684681 -0.653034,1.580335 -1.473081,2.02666 -0.924576,0.503218 -2.347064,0.668578 -3.373697,0.392183 z m 2.61434,-0.504529 c 1.266696,-0.396249 1.952065,-1.071869 1.952065,-1.924297 0,-1.316246 -1.164292,-2.107594 -3.100855,-2.107594 -2.189814,0 -3.68129,1.198994 -3.256239,2.617686 0.132185,0.441196 0.721467,1.158822 1.121395,1.365633 0.716,0.370257 2.185795,0.391999 3.283634,0.04857 z"
     id="path5110"
     inkscape:connector-curvature="0" /><path
     style="fill:#ffffff;stroke-width:0.09363172"
     d="m 61.292315,56.283745 c -1.540374,-0.572655 -1.717445,-2.190421 -0.331218,-3.026093 0.44344,-0.267323 0.585546,-0.304303 1.169371,-0.304303 1.799944,0 2.776519,1.511716 1.758297,2.721804 -0.5254,0.624402 -1.769518,0.916016 -2.59645,0.608592 z m 1.496586,-0.555826 c 0.575261,-0.267876 0.823127,-0.616072 0.81513,-1.145073 -0.01233,-0.815355 -0.571403,-1.20718 -1.719041,-1.204777 -0.614625,0.0013 -0.764891,0.03599 -1.091443,0.252096 -0.829314,0.548814 -0.713527,1.786593 0.204517,2.18631 0.463114,0.20164 1.25135,0.162662 1.790837,-0.08856 z"
     id="path5112"
     inkscape:connector-curvature="0" /><path
     style="fill:#ffffff;stroke-width:0.09363172"
     d="m 68.752172,58.056683 c -1.263257,-0.353217 -2.140635,-1.154623 -2.316175,-2.115618 -0.18731,-1.025428 0.777725,-2.181238 2.183826,-2.615538 0.660455,-0.203994 1.760197,-0.242595 2.440857,-0.08568 1.040815,0.239951 2.10288,1.066796 2.356201,1.834366 0.363356,1.10098 -0.409067,2.289713 -1.850873,2.848433 -0.6953,0.269439 -2.09168,0.335953 -2.813836,0.134032 z m 2.225612,-0.161104 c 0.930416,-0.280286 1.940043,-1.110943 2.21024,-1.818445 0.132054,-0.345777 0.140078,-0.475608 0.04833,-0.781854 -0.380562,-1.270203 -2.447419,-2.160233 -4.120733,-1.774472 -1.336209,0.308045 -2.538523,1.421437 -2.538523,2.350775 0,0.640159 1.666863,1.903952 2.808952,2.129709 0.45842,0.09062 1.076225,0.04959 1.591739,-0.105713 z"
     id="path5114"
     inkscape:connector-curvature="0" /><path
     style="fill:#ffffff;stroke-width:0.09363172"
     d="m 66.879719,45.864067 c 0.140696,-0.02136 0.393502,-0.02179 0.561791,-9.55e-4 0.168289,0.02084 0.05317,0.03832 -0.255811,0.03884 -0.308984,5.26e-4 -0.446675,-0.01652 -0.30598,-0.03789 z"
     id="path5116"
     inkscape:connector-curvature="0" /><path
     style="fill:#ffffff;stroke-width:0.09363172"
     d="m 66.295592,48.845316 c -0.370395,-0.121531 -0.797883,-0.360664 -0.930588,-0.520564 -0.150855,-0.18177 -0.113888,-0.18251 0.308146,-0.0062 0.436344,0.182316 1.469798,0.180384 1.910065,-0.0036 0.679713,-0.284003 0.961941,-0.714477 0.989219,-1.508829 0.02581,-0.751735 -0.155126,-0.875374 -1.280068,-0.874687 -1.094113,6.67e-4 -1.514533,0.121284 -1.953782,0.560534 -0.295971,0.29597 -0.35323,0.416725 -0.35323,0.744928 0,0.215434 0.04555,0.476805 0.101218,0.580825 0.05567,0.10402 0.07729,0.213055 0.04805,0.2423 -0.08499,0.08499 -0.336527,-0.597138 -0.336527,-0.91262 0,-0.158198 0.08388,-0.45205 0.186399,-0.653005 0.647563,-1.269327 2.747924,-1.451998 3.737401,-0.325046 0.69957,0.796767 0.384093,1.951016 -0.681886,2.494838 -0.412459,0.21042 -1.356351,0.308396 -1.744412,0.18107 z"
     id="path5118"
     inkscape:connector-curvature="0" /><path
     style="fill:#ffffff;stroke-width:0.09363172"
     d="m 67.326147,42.489858 c -0.451302,-0.225451 -0.711006,-0.759051 -0.568454,-1.167975 0.239134,-0.685981 0.837456,-0.969277 1.441617,-0.682583 0.862008,0.409049 0.769266,1.565021 -0.153613,1.914691 -0.338648,0.12831 -0.333383,0.128779 -0.71955,-0.06413 z m 1.125165,-0.493006 c 0.173937,-0.173936 0.177907,-0.210007 0.05028,-0.456812 -0.151715,-0.293386 -0.313869,-0.384288 -0.685501,-0.384288 -0.508688,0 -0.898163,0.704685 -0.513351,0.928817 0.291237,0.16963 0.940837,0.12002 1.148573,-0.08772 z"
     id="path5120"
     inkscape:connector-curvature="0" /><path
     style="fill:#ffffff;stroke-width:0.09363172"
     d="m 62.845258,41.57403 c -0.327986,-0.275982 -0.516027,-0.763453 -0.428707,-1.111365 0.03365,-0.13408 0.186222,-0.348994 0.339045,-0.477586 0.594045,-0.499855 1.58307,-0.172956 1.722313,0.569271 0.176971,0.94334 -0.913777,1.624573 -1.632651,1.01968 z"
     id="path5122"
     inkscape:connector-curvature="0" /><path
     style="fill:#ffffff;stroke-width:0.09363172"
     d="m 60.912374,45.145507 c -0.391067,-0.170839 -0.870335,-0.591248 -1.033312,-0.906412 -0.177437,-0.343125 -0.175892,-1.144963 0.0029,-1.490654 0.07698,-0.148855 0.31578,-0.375493 0.530675,-0.503642 l 0.390719,-0.232996 0.351861,0.484884 c 0.580064,0.799359 1.302928,1.175751 2.271985,1.183011 l 0.548533,0.0041 -0.06264,0.257487 c -0.09332,0.38364 -0.5286,0.87789 -0.986299,1.119927 -0.469994,0.248539 -1.536278,0.293154 -2.014397,0.08429 z m 2.008685,-0.391408 c 0.363807,-0.07012 0.753451,-0.383317 0.753451,-0.605634 0,-0.214595 -0.266577,-0.371025 -0.632273,-0.371025 -0.487354,0 -1.191462,-0.269645 -1.705416,-0.653106 -0.277796,-0.207263 -0.567892,-0.376843 -0.644656,-0.376843 -0.2602,0 -0.482034,0.297628 -0.481884,0.646526 3.26e-4,0.753679 0.515871,1.248077 1.470783,1.410453 0.43173,0.07341 0.642065,0.06487 1.239995,-0.05037 z"
     id="path5124"
     inkscape:connector-curvature="0" /><path
     style="fill:#ffffff;stroke-width:0.09363172"
     d="m 58.996241,59.165509 c 0.0018,-0.0436 0.06353,-0.184618 0.13713,-0.313361 0.178309,-0.31192 0.177057,-0.883005 -0.0023,-1.031827 -0.07849,-0.06514 -0.121388,-0.139761 -0.09533,-0.165822 0.07137,-0.07137 0.800391,0.458267 0.79611,0.578368 -0.002,0.05737 -0.191649,0.30852 -0.421342,0.558115 -0.229694,0.249595 -0.416133,0.418133 -0.414308,0.374527 z"
     id="path5126"
     inkscape:connector-curvature="0" /><path
     style="fill:#ffffff;stroke-width:0.09363172"
     d="m 57.072792,60.694175 c -1.474431,-0.693799 -1.542587,-2.295833 -0.12767,-3.000916 0.405285,-0.201962 0.610151,-0.243077 1.153276,-0.231457 l 0.660446,0.01413 -0.71509,0.06007 c -0.55848,0.04692 -0.800227,0.116415 -1.103828,0.317328 -0.806934,0.534004 -0.997544,1.386266 -0.472227,2.111444 0.361605,0.499183 0.809563,0.782388 1.120749,0.708555 0.278846,-0.06616 0.68884,-0.438674 0.953556,-0.866385 0.105262,-0.170076 0.203962,-0.296478 0.219333,-0.280895 0.01537,0.01558 -0.07118,0.323272 -0.192331,0.683755 l -0.22028,0.655422 -0.403547,0.02478 c -0.270707,0.01662 -0.557881,-0.04784 -0.872387,-0.195835 z"
     id="path5128"
     inkscape:connector-curvature="0" /><path
     style="fill:#ffffff;stroke-width:0.09363172"
     d="M 57.226755,60.786041 C 56.7803,60.621369 56.185216,60.095207 56.032762,59.730334 55.729226,59.003869 56.01915,58.253025 56.78635,57.778695 57.189597,57.529384 57.338915,57.4925 58.002442,57.478303 l 0.756402,-0.01619 -0.660695,0.07525 c -1.173706,0.133686 -1.810172,0.635261 -1.891468,1.490594 -0.03549,0.373423 0.0019,0.495924 0.272381,0.893067 0.636183,0.933995 1.216938,0.962798 1.889391,0.0937 0.2116,-0.273475 0.392611,-0.48893 0.402248,-0.478789 0.0096,0.01014 -0.07805,0.313377 -0.194865,0.67386 l -0.212388,0.655422 -0.410908,0.01848 c -0.226,0.01016 -0.552603,-0.03379 -0.725785,-0.09766 z"
     id="path5130"
     inkscape:connector-curvature="0" /><path
     style="fill:#ffffff;stroke-width:0.06620762"
     d="m 57.285462,60.802389 c -0.845525,-0.27024 -1.369469,-0.904784 -1.369278,-1.658321 6.9e-5,-0.271823 0.04586,-0.447517 0.180617,-0.693003 0.628401,-1.144755 2.484362,-1.393512 3.5047,-0.469741 l 0.29876,0.270485 -0.308914,0.330266 c -0.584191,0.624572 -0.935911,1.236686 -1.102798,1.919249 -0.04452,0.182071 -0.113352,0.352927 -0.152967,0.37968 -0.127992,0.08644 -0.65781,0.04677 -1.05012,-0.07861 z m 0.468271,-0.2294 c 0.352709,-0.18516 0.939645,-0.901554 1.279595,-1.561834 0.263042,-0.510902 0.299836,-0.960396 0.09696,-1.184568 -0.28623,-0.316281 -1.295249,-0.352175 -1.952448,-0.06946 -0.727453,0.312942 -1.164732,1.142921 -0.929014,1.76332 0.121398,0.319514 0.583042,0.874011 0.841092,1.010264 0.297766,0.157225 0.42893,0.165577 0.663812,0.04227 z"
     id="path5132"
     inkscape:connector-curvature="0" /><path
     style="fill:#ffe6d5;stroke-width:0.06620762"
     d=""
     id="path5134"
     inkscape:connector-curvature="0" /><path
     style="fill:#ffe6d5;stroke-width:0.06620762"
     d="m 56.310429,84.688044 c 0,-0.01883 -0.118264,-0.542063 -0.262809,-1.162739 -0.144545,-0.620676 -0.489233,-2.241425 -0.765973,-3.601665 -0.86391,-4.24632 -1.468385,-6.499369 -2.064128,-7.693597 -0.08809,-0.176588 -0.150715,-0.329513 -0.139163,-0.339833 0.01155,-0.01032 0.251122,-0.0035 0.532379,0.01518 0.394759,0.0262 0.518556,0.0584 0.542863,0.141211 0.09051,0.308346 2.225506,12.607008 2.193992,12.638521 -0.02044,0.02044 -0.03716,0.02175 -0.03716,0.0029 z"
     id="path5136"
     inkscape:connector-curvature="0" /><path
     style="fill:#ffe6d5;stroke-width:0.06620762"
     d="m 52.324965,70.627579 c -0.275652,-0.823249 -0.32367,-1.246421 -0.364678,-3.213841 l -0.03808,-1.826993 0.316435,-0.04337 c 0.174039,-0.02385 0.498485,-0.04032 0.720992,-0.0366 0.339226,0.0057 0.369875,0.01501 0.18979,0.05776 -0.243348,0.05777 -0.38569,0.160242 -0.50058,0.360365 -0.05593,0.09743 -0.08885,0.885363 -0.112249,2.686854 l -0.0331,2.548994 z"
     id="path5138"
     inkscape:connector-curvature="0" /><path
     style="fill:#ffe6d5;stroke-width:0.06620762"
     d="m 78.170461,68.514283 8.08e-4,-2.381639 -0.205828,-0.183907 -0.205829,-0.183906 h -5.527293 -5.527292 v -0.387873 -0.387872 l 0.375333,-0.249207 c 0.206433,-0.137063 0.57885,-0.455571 0.827595,-0.707794 0.248744,-0.252223 0.452262,-0.444827 0.452262,-0.428009 0,0.01682 -0.193657,0.439109 -0.430349,0.938424 -0.236692,0.499315 -0.43035,0.919018 -0.43035,0.932673 0,0.01365 2.460853,0.02483 5.468563,0.02483 h 5.468562 l -0.03286,2.300715 c -0.02501,1.751563 -0.05688,2.395532 -0.133493,2.697961 -0.0955,0.376984 -0.100594,0.275771 -0.09983,-1.984393 z"
     id="path5140"
     inkscape:connector-curvature="0" /><path
     style="fill:#ffe6d5;stroke-width:0.06620762"
     d="m 69.065428,61.58329 c 0.02535,-0.471665 0.0044,-0.728546 -0.08814,-1.081966 l -0.121387,-0.463453 1.192174,-0.0059 c 1.093481,-0.0054 1.240527,-0.0206 1.77628,-0.18317 0.321259,-0.09748 0.704013,-0.238414 0.850563,-0.313178 0.378837,-0.193268 0.383332,-0.115043 0.0073,0.126283 -0.50672,0.325162 -0.91133,0.477762 -1.42573,0.537719 -0.263808,0.03075 -0.562405,0.08845 -0.663549,0.128216 -0.323017,0.127012 -0.844671,0.682655 -1.186937,1.264274 -0.182682,0.310434 -0.341516,0.574615 -0.352965,0.587069 -0.01145,0.01245 -0.0059,-0.255686 0.01243,-0.595868 z"
     id="path5142"
     inkscape:connector-curvature="0" /><path
     style="fill:#ffe6d5;stroke-width:0.06620762"
     d="m 56.873194,65.393005 c 1.420154,-0.0483 2.932493,-0.111023 3.360755,-0.13938 l 0.778658,-0.05156 -1.506942,-0.955794 c -2.075962,-1.316702 -3.006604,-1.936316 -2.96731,-1.975611 0.01831,-0.01831 0.219362,0.01891 0.446775,0.08272 0.25407,0.07129 0.660456,0.118027 1.054098,0.121232 l 0.64062,0.0052 0.140901,0.290016 c 0.483721,0.995645 1.552018,1.857485 2.849447,2.298769 0.720977,0.24522 1.366514,0.323106 2.324755,0.280489 0.715354,-0.03182 0.856262,-0.02253 0.856262,0.05641 0,0.08114 -0.746078,0.09313 -5.280058,0.0849 l -5.280058,-0.0096 z"
     id="path5144"
     inkscape:connector-curvature="0" /><path
     style="fill:#ffe6d5;stroke-width:0.06620762"
     d="m 55.751125,56.225332 c 0.02441,-0.03949 0.316653,-0.273821 0.649432,-0.520728 0.933728,-0.692784 1.294838,-1.129657 1.396371,-1.68934 0.06591,-0.363308 0.198912,-0.598459 0.551997,-0.975935 0.290589,-0.310664 0.875519,-0.780854 0.971404,-0.780854 0.02526,0 -0.0917,0.156415 -0.259907,0.34759 -0.661522,0.751857 -0.935124,1.662449 -0.759132,2.52651 l 0.09874,0.48477 -0.571521,0.03703 c -0.593033,0.03842 -1.438087,0.277192 -1.823828,0.515326 -0.231758,0.143073 -0.319492,0.162324 -0.253555,0.05563 z"
     id="path5146"
     inkscape:connector-curvature="0" /><path
     style="fill:#ffe6d5;stroke-width:0.06620762"
     d="m 54.26256,60.35942 c -0.467686,-0.653115 -0.563961,-1.27456 -0.296591,-1.914465 0.115857,-0.277286 0.496696,-0.90589 0.529162,-0.873424 0.01269,0.01269 -0.05224,0.209558 -0.144306,0.437478 -0.310589,0.768942 -0.270293,1.655818 0.109015,2.399324 0.207296,0.406334 0.111752,0.382645 -0.19728,-0.04891 z"
     id="path5148"
     inkscape:connector-curvature="0" /><path
     style="fill:#ffe6d5;stroke-width:0.06620762"
     d="m 64.130596,51.72235 c -0.554553,-0.285613 -1.197281,-0.451919 -1.808342,-0.467909 -0.229504,-0.006 -0.01173,-0.02968 0.483942,-0.05261 1.106059,-0.05117 1.286416,-0.129916 1.231706,-0.537811 -0.04722,-0.352021 -0.689475,-1.658946 -1.060937,-2.158888 -0.469053,-0.631288 -1.071821,-1.067045 -1.865709,-1.348769 l -0.331812,-0.11775 0.534207,0.03672 c 0.471647,0.03242 1.230515,-0.04533 1.517562,-0.155479 0.08078,-0.031 0.09998,0.0239 0.09998,0.285846 0,0.4227 0.158011,1.018881 0.381524,1.439501 0.0982,0.184797 0.412094,0.572549 0.697543,0.861671 l 0.518999,0.525675 0.04905,0.963996 c 0.02698,0.530198 0.04728,0.967057 0.04512,0.970798 -0.0022,0.0037 -0.223941,-0.106505 -0.492831,-0.244992 z"
     id="path5150"
     inkscape:connector-curvature="0" /><path
     style="fill:#ffe6d5;stroke-width:0.06620762"
     d="M 66.4793,52.304424 C 66.46054,52.151702 66.43376,51.74371 66.41978,51.397775 l -0.02542,-0.628972 0.635338,-0.0046 c 0.389515,-0.0028 0.780174,-0.04765 1.00967,-0.115863 0.205883,-0.0612 0.39954,-0.110322 0.43035,-0.109163 0.03081,0.0012 -0.107846,0.149177 -0.308124,0.32893 l -0.364142,0.326824 1.224841,0.0026 c 1.363342,0.0029 1.832117,0.05968 2.606856,0.315733 0.597248,0.197392 0.599015,0.276061 0.0025,0.111368 -0.609642,-0.168318 -2.06524,-0.202416 -2.746666,-0.06434 -0.713277,0.144528 -1.463566,0.434917 -1.970846,0.762788 l -0.400733,0.259006 z"
     id="path5152"
     inkscape:connector-curvature="0" /><path
     style="fill:#ffe6d5;stroke-width:0.06620762"
     d="m 70.599874,46.077345 c -0.187653,-0.456274 -0.643136,-1.033402 -1.0419,-1.32016 -0.196306,-0.141167 -0.371568,-0.268194 -0.389472,-0.282284 -0.0179,-0.01409 0.02342,-0.05694 0.09183,-0.09522 0.224765,-0.125785 0.643503,-0.536619 0.844082,-0.82815 0.221535,-0.321991 0.448964,-0.929211 0.463634,-1.237873 0.0054,-0.113725 0.03257,-0.02814 0.06107,0.192436 0.05676,0.439181 0.164676,3.873293 0.121709,3.872898 -0.01485,-1.39e-4 -0.08278,-0.135876 -0.150951,-0.301644 z"
     id="path5154"
     inkscape:connector-curvature="0" /><path
     style="fill:#ffe6d5;stroke-width:0.06620762"
     d="M 62.149942,101.19756 C 57.203707,100.82224 53.05332,99.680826 48.643586,97.483124 42.391996,94.367492 37.460865,90.040416 33.714027,84.382415 27.805789,75.460541 25.780459,64.841776 28.050523,54.688778 c 2.144449,-9.591175 8.181566,-18.298851 16.421982,-23.686355 4.305787,-2.815082 9.198564,-4.71764 14.333952,-5.573761 2.39423,-0.399143 3.223889,-0.460709 6.256621,-0.464279 2.955458,-0.0035 3.48647,0.02801 5.624549,0.333536 2.905845,0.415238 5.642258,1.110157 8.245948,2.094077 9.234284,3.489586 16.421531,10.025577 20.697054,18.821637 2.412861,4.963997 3.432281,8.557464 3.775241,13.307818 0.16832,2.331326 0.0899,5.895335 -0.18056,8.209746 -1.00797,8.624308 -4.816218,16.168739 -11.546627,22.874735 -2.811974,2.801775 -5.468706,4.716645 -9.004307,6.489963 -4.339953,2.176748 -8.913461,3.475135 -14.118179,4.008035 -1.186959,0.12153 -5.254957,0.18099 -6.406255,0.0936 z m 6.653867,-13.043012 c 2.231189,-0.07161 3.053956,-0.146512 3.362602,-0.306118 0.109783,-0.05677 0.337856,-0.241635 0.50683,-0.410809 0.845463,-0.846466 1.75571,-3.672967 3.148034,-9.77528 0.504885,-2.212822 0.536446,-2.332904 0.93967,-3.575212 0.334478,-1.030504 0.769882,-2.006031 0.921277,-2.064126 0.12936,-0.04964 0.392513,-0.579217 0.454783,-0.915217 0.02699,-0.145657 0.04431,-1.322497 0.03848,-2.615201 l -0.0106,-2.350371 -0.174255,-0.182071 -0.174255,-0.182071 h -5.549054 -5.549054 v -0.391607 -0.391607 l 0.34759,-0.252739 c 0.191175,-0.139006 0.569308,-0.461256 0.840298,-0.716111 0.416105,-0.39133 0.542565,-0.565327 0.813392,-1.119138 0.275897,-0.564181 0.324898,-0.725619 0.350857,-1.155933 0.02716,-0.450237 0.0082,-0.652077 -0.138973,-1.475802 l -0.04277,-0.239431 0.619647,0.03163 c 0.999901,0.05104 1.941872,-0.07355 2.65605,-0.35128 0.336547,-0.130879 0.656986,-0.244502 0.712087,-0.252497 0.183697,-0.02665 0.954537,-0.685621 1.32328,-1.131233 0.514164,-0.621346 0.828111,-1.115001 1.074766,-1.68998 0.183942,-0.428784 0.213609,-0.575189 0.214847,-1.060244 0.0013,-0.516495 -0.01867,-0.60359 -0.243121,-1.059322 -0.472688,-0.959765 -1.232563,-1.754791 -2.271333,-2.376403 -0.657902,-0.393697 -0.771705,-0.43516 -1.57491,-0.573814 -0.485429,-0.0838 -0.88408,-0.103803 -1.588983,-0.07974 -0.822702,0.02808 -1.02004,0.05805 -1.569952,0.23838 -0.345935,0.113442 -0.864881,0.34101 -1.153213,0.505707 -0.288333,0.164698 -0.539046,0.284645 -0.557142,0.266549 -0.03326,-0.03326 -0.134314,-1.142419 -0.140244,-1.539337 l -0.0032,-0.215174 0.612421,-3.98e-4 c 0.336831,-1.98e-4 0.716697,-0.0271 0.844147,-0.05978 0.523795,-0.134297 0.607593,-0.144797 0.561596,-0.07037 -0.138275,0.223732 1.492488,-1.149994 1.78342,-1.502322 0.300015,-0.363328 0.491167,-0.878181 0.571113,-1.538247 0.09296,-0.767565 0.04493,-1.118196 -0.22316,-1.628961 -0.199015,-0.379161 -0.886936,-1.148333 -1.234581,-1.380397 l -0.163699,-0.109247 0.163699,-0.110144 c 0.549631,-0.36982 1.004659,-1.024837 1.211796,-1.744394 0.223167,-0.775245 -0.157511,-2.144849 -0.791077,-2.84613 -0.427912,-0.473648 -1.189664,-0.725982 -2.205753,-0.730667 -0.597165,-0.0028 -1.42926,-0.141536 -1.698121,-0.283223 -0.106253,-0.056 -0.318696,-0.236623 -0.472094,-0.401395 -0.278052,-0.298669 -0.737965,-0.50481 -1.126263,-0.50481 -0.864222,0 -2.233958,0.608208 -3.328677,1.478042 -1.110208,0.882141 -2.294353,2.165899 -2.911566,3.156492 -0.690588,1.108357 -0.740059,1.397192 -0.34916,2.038532 0.885014,1.452019 2.198117,2.415401 3.459349,2.538014 0.340996,0.03315 0.758443,0.02819 1.059322,-0.01259 0.273106,-0.03702 0.555827,-0.07352 0.628268,-0.08112 0.11601,-0.01217 0.137055,0.03938 0.176539,0.432449 0.0884,0.880008 0.366187,1.425082 1.125211,2.207866 l 0.456009,0.470285 0.04173,0.939257 0.04173,0.939257 -0.158871,-0.06326 c -0.08738,-0.03479 -0.278045,-0.121804 -0.423702,-0.193356 -0.736728,-0.361904 -1.742185,-0.531699 -2.422623,-0.409116 -0.99675,0.179567 -2.131243,0.734292 -2.476741,1.211033 -0.715987,0.987969 -0.936594,1.568175 -0.869699,2.287346 0.02253,0.24221 0.0595,0.537209 0.08215,0.655555 l 0.04119,0.215175 h -0.375139 c -0.517763,0 -1.238041,0.172281 -1.803589,0.431395 -0.261472,0.119797 -0.488459,0.204758 -0.504416,0.188802 -0.01596,-0.01596 -0.293615,0.251709 -0.617021,0.594811 -0.541195,0.574156 -0.601188,0.66527 -0.753529,1.144423 -0.23542,0.740458 -0.227779,1.540752 0.02051,2.147882 0.09796,0.239549 0.178116,0.46684 0.178116,0.50509 0,0.11689 0.890088,0.917112 1.434567,1.289728 0.674901,0.461871 0.712511,0.48441 0.656147,0.393211 -0.05667,-0.0917 -0.09533,-0.09369 0.458304,0.02358 0.254886,0.05399 0.716673,0.09875 1.026194,0.09947 l 0.562765,0.0013 0.198622,0.380229 c 0.109243,0.209125 0.390074,0.583203 0.624069,0.831283 1.09377,1.159611 2.727363,1.772084 4.473919,1.67738 0.400556,-0.02172 0.768918,-0.01392 0.818582,0.01734 0.162746,0.102422 -2.731151,0.155054 -7.157704,0.130179 -4.21337,-0.02368 -4.326861,-0.021 -4.585137,0.108138 -0.468974,0.234487 -0.471231,0.247763 -0.513891,3.022388 -0.0414,2.692448 -0.04912,2.62333 0.342968,3.068714 0.160369,0.182167 0.215833,0.200444 0.669447,0.2206 0.272024,0.01209 0.518862,0.0453 0.548525,0.0738 0.02966,0.0285 0.09553,0.256958 0.146372,0.507683 0.07012,0.34583 0.893902,5.011249 1.196922,6.778692 0.02185,0.12745 0.05037,0.291314 0.06339,0.364142 0.01301,0.07283 0.219514,1.294359 0.458893,2.714513 0.239377,1.420154 0.511066,2.832404 0.603752,3.138334 0.378764,1.250195 0.899081,2.085932 1.451315,2.331116 0.371089,0.164758 1.474387,0.263615 3.573094,0.320156 2.735389,0.07369 4.960641,0.07427 7.216632,0.0019 z m 9.616214,-20.175072 c -0.01241,-0.28221 -0.02256,-0.05131 -0.02256,0.513109 0,0.56442 0.01015,0.795319 0.02256,0.513109 0.01241,-0.28221 0.01241,-0.744008 0,-1.026218 z m -26.422208,0.628972 c -0.01837,-0.04552 -0.03339,-0.0083 -0.03339,0.08276 0,0.09103 0.01503,0.128277 0.03339,0.08276 0.01837,-0.04552 0.01837,-0.120001 0,-0.16552 z m 0.136844,-3.069 c -0.022,-0.022 -0.0791,-0.02435 -0.126898,-0.0052 -0.05282,0.02113 -0.03713,0.03682 0.04,0.04 0.06979,0.0029 0.108897,-0.01277 0.0869,-0.03477 z m 6.382309,-12.655311 c 0.08235,-0.10501 0.08001,-0.107351 -0.025,-0.025 C 58.381685,52.945631 58.346613,53 58.401105,53 c 0.01375,0 0.06589,-0.05214 0.115863,-0.115863 z m 12.221988,-9.004238 c -0.01428,-0.136553 -0.02597,-0.02483 -0.02597,0.248279 0,0.273106 0.01169,0.384832 0.02597,0.248279 0.01428,-0.136554 0.01428,-0.360004 0,-0.496558 z"
     id="path5156"
     inkscape:connector-curvature="0" /><path
     style="fill:#ffe6d5;stroke-width:0.06620762"
     d="m 69.565196,39.746642 c -0.09104,-0.07691 -0.359176,-0.232337 -0.595868,-0.345387 -0.404206,-0.193059 -0.476604,-0.205545 -1.191738,-0.205545 -0.724346,0 -0.783884,0.01065 -1.223809,0.218959 -0.254332,0.120427 -0.508189,0.260377 -0.564125,0.310999 -0.08918,0.0807 -0.125012,0.04752 -0.29092,-0.269358 -0.38884,-0.742675 -1.208492,-1.301187 -2.058403,-1.402602 -0.315737,-0.03767 -0.322166,-0.04229 -0.133135,-0.09564 0.331921,-0.09368 1.041208,-0.07661 1.299374,0.03127 0.132028,0.05517 0.40619,0.25077 0.609249,0.434661 0.472308,0.427725 0.806113,0.529055 1.998962,0.606804 0.583438,0.03803 1.087714,0.109759 1.357557,0.193105 0.413349,0.127671 0.991479,0.481321 0.991479,0.606502 0,0.0809 -0.0074,0.07776 -0.198623,-0.08377 z"
     id="path5158"
     inkscape:connector-curvature="0" /><path
     style="fill:#ffe6d5;stroke-width:0.06620762"
     d="m 59.236806,40.887066 c 0,-0.02982 0.26187,-0.303402 0.581934,-0.607958 0.598824,-0.56981 1.182478,-1.059601 1.129587,-0.947927 -0.289686,0.611639 -0.387368,0.845081 -0.387368,0.925739 0,0.05358 -0.03912,0.09742 -0.08694,0.09742 -0.04781,0 -0.345749,0.132062 -0.662076,0.293472 -0.316327,0.161409 -0.57514,0.269072 -0.57514,0.239251 z"
     id="path5160"
     inkscape:connector-curvature="0" /><path
     style="fill:#ffe6d5;stroke-width:0.06620762"
     d=""
     id="path5162"
     inkscape:connector-curvature="0" /><path
     style="fill:#ffe6d5;stroke-width:0.06620762"
     d="m 57.719258,43.692311 c 0.0032,-0.07713 0.01886,-0.09282 0.04,-0.04 0.01913,0.04779 0.01677,0.104897 -0.0052,0.126898 -0.022,0.022 -0.03765,-0.0171 -0.03477,-0.0869 z"
     id="path5164"
     inkscape:connector-curvature="0" /><path
     style="fill:#ffe6d5;stroke-width:0.06620762"
     d="m 57.786377,44.732668 c -0.203419,-0.285676 -0.400255,-0.743889 -0.401878,-0.935528 -0.0015,-0.176743 0.376715,-1.034208 0.431851,-0.979073 0.01806,0.01806 -9.41e-4,0.190369 -0.04223,0.3829 -0.08417,0.392455 -0.03791,0.984387 0.109591,1.402455 0.120213,0.34072 0.08579,0.386424 -0.09733,0.129246 z"
     id="path5166"
     inkscape:connector-curvature="0" /><path
     style="fill:#ffe6d5;stroke-width:0.06620762"
     d="m 60.130609,88.082175 c -1.232991,-0.06331 -1.886369,-0.152834 -2.164256,-0.296535 -0.303502,-0.156947 -0.186567,-0.171658 0.199236,-0.02506 0.334259,0.127009 0.540852,0.131057 7.047166,0.138099 6.597792,0.0071 7.574041,0.04557 4.800176,0.188942 -1.528449,0.079 -8.310512,0.07527 -9.882322,-0.0054 z"
     id="path5168"
     inkscape:connector-curvature="0" /><path
     style="fill:#ffe6d5;stroke-width:0.06620762"
     d="M 62.315461,101.22018 C 58.751262,100.99066 55.079847,100.1818 51.854656,98.915503 45.097741,96.262565 39.310799,91.936099 35.15576,86.430982 30.617787,80.418504 27.898325,73.409931 27.257637,66.076006 c -0.119579,-1.368822 -0.154888,-3.890813 -0.07276,-5.197298 0.366924,-5.837251 1.843197,-11.008535 4.588127,-16.071902 l 0.403787,-0.744836 h 12.790354 12.790354 l 0.07758,0.336089 c 0.04267,0.184849 0.07758,0.381731 0.07758,0.437514 0,0.141384 0.600358,0.881342 0.941603,1.160551 0.909623,0.744261 1.706015,1.052673 2.723709,1.054788 0.369208,7.68e-4 0.803754,-0.02902 0.965658,-0.06619 0.161903,-0.03717 0.314175,-0.05534 0.338382,-0.04038 0.02421,0.01496 0.05957,0.214213 0.07858,0.442782 0.06808,0.818572 0.491157,1.618132 1.225546,2.316139 0.306507,0.291322 0.330599,0.338215 0.370655,0.721444 0.04688,0.448528 0.05857,1.515975 0.01661,1.515975 -0.01443,0 -0.245326,-0.103336 -0.513109,-0.229635 -0.693322,-0.327005 -1.18271,-0.439765 -1.910341,-0.44016 -0.760482,-3.98e-4 -1.289682,0.145828 -2.146469,0.593168 -0.466063,0.243336 -0.651557,0.385134 -0.879734,0.672496 -0.796914,1.003619 -0.986637,1.700339 -0.776941,2.853152 l 0.04328,0.237952 -0.563773,0.03979 c -0.592431,0.04181 -1.26755,0.235816 -1.934661,0.555959 -0.297224,0.142637 -0.505436,0.319727 -0.888444,0.755649 -0.432523,0.492277 -0.522649,0.639543 -0.665761,1.087857 -0.247437,0.775121 -0.226089,1.471357 0.06763,2.205849 0.195747,0.489488 0.273004,0.599248 0.675722,0.960011 0.550936,0.493538 1.432423,1.101839 1.537976,1.061334 0.04218,-0.01619 0.268626,0.01581 0.503213,0.0711 0.234589,0.05529 0.679768,0.101044 0.989289,0.101668 l 0.562765,0.0011 0.196675,0.380537 c 0.118385,0.22906 0.421733,0.606956 0.762063,0.949344 0.484881,0.487815 0.664279,0.617567 1.259892,0.911229 1.044708,0.515085 1.534188,0.624672 2.824161,0.632288 0.588684,0.0035 1.088167,0.02414 1.109962,0.04592 0.09224,0.09219 -1.550875,0.125465 -6.38448,0.129308 -3.796168,0.003 -5.189764,0.02464 -5.356617,0.0831 -0.124039,0.04346 -0.287902,0.16309 -0.364142,0.265839 -0.134056,0.180669 -0.139304,0.269806 -0.159527,2.709191 -0.0115,1.387306 -0.0036,2.591258 0.01751,2.67545 0.02113,0.08419 0.127764,0.254832 0.236963,0.379202 0.185328,0.211077 0.233831,0.229251 0.728753,0.273062 0.397124,0.03515 0.54526,0.07505 0.590168,0.158966 0.03298,0.06162 0.419524,2.166345 0.858993,4.677172 0.43947,2.510828 0.828771,4.729005 0.865113,4.929283 0.03634,0.200278 0.185688,1.060531 0.331882,1.911673 0.316469,1.84249 0.600806,2.776193 1.058375,3.47548 0.169947,0.259722 0.351374,0.504671 0.403172,0.544332 0.0518,0.03966 0.317629,0.121046 0.590736,0.180857 0.434845,0.09523 1.28236,0.112803 6.819386,0.14138 3.477555,0.01795 6.437805,0.03243 6.578334,0.03219 0.748644,-0.0013 1.360473,-0.691473 1.992163,-2.247243 0.439081,-1.081398 1.358341,-4.484003 2.191144,-8.110434 0.749769,-3.26486 1.333888,-5.015919 1.859252,-5.573634 0.09659,-0.102536 0.238503,-0.3205 0.315365,-0.484364 0.133299,-0.284186 0.14071,-0.415181 0.160597,-2.838819 l 0.02085,-2.540885 -0.182204,-0.19018 -0.182203,-0.190179 H 72.267326 66.718272 V 65.384505 64.990974 L 67.19893,64.62922 c 0.73442,-0.55274 1.174412,-1.055774 1.497941,-1.712565 0.410913,-0.834189 0.462197,-1.404535 0.23683,-2.633851 l -0.04248,-0.231727 1.015619,-0.004 c 1.159993,-0.0046 1.720961,-0.105029 2.626595,-0.470131 0.597584,-0.240913 0.906521,-0.457734 1.429013,-1.002926 0.989174,-1.032149 1.503781,-2.056918 1.50876,-3.004488 0.0023,-0.431943 -0.0278,-0.574256 -0.198328,-0.938668 -0.527625,-1.127512 -1.328153,-1.942222 -2.595919,-2.64191 -0.816235,-0.450486 -2.59394,-0.646571 -3.788936,-0.417931 -0.606352,0.116014 -1.415107,0.424693 -1.931586,0.737231 -0.440869,0.266783 -0.500008,0.242998 -0.502378,-0.20205 -7.75e-4,-0.145657 -0.02054,-0.510626 -0.04393,-0.811043 l -0.04252,-0.546213 h 0.612677 c 0.336972,0 0.786913,-0.04515 0.999868,-0.100332 0.212955,-0.05518 0.410913,-0.09284 0.439906,-0.08369 0.09832,0.03103 0.844672,-0.566476 1.418904,-1.135941 0.459806,-0.45599 0.598799,-0.64113 0.710174,-0.945965 0.16591,-0.454098 0.303231,-1.495367 0.24139,-1.830406 -0.116093,-0.62896 -0.825,-1.645053 -1.392363,-1.995701 -0.126615,-0.07825 -0.229573,-0.162193 -0.228796,-0.186534 7.77e-4,-0.02434 0.117263,-0.126188 0.258857,-0.226327 l 0.257443,-0.182071 h 14.431507 14.431506 l 0.761977,1.506224 c 2.346539,4.638467 3.484319,8.182261 3.950019,12.303024 0.27782,2.458175 0.32841,5.5721 0.13278,8.171685 -0.70325,9.34481 -4.495272,17.33267 -11.614999,24.466877 -2.273045,2.277668 -4.191258,3.786381 -6.786881,5.338017 -5.129864,3.066578 -11.447001,4.981842 -17.644332,5.349512 -1.02215,0.0606 -4.219543,0.0752 -5.03178,0.0229 z m 3.027813,-13.045705 c -0.118998,-0.01474 -0.297759,-0.01443 -0.397246,6.75e-4 -0.09949,0.01511 -0.0021,0.02716 0.216361,0.02679 0.218485,-3.97e-4 0.299883,-0.01273 0.180885,-0.02747 z m -3.341527,-0.06372 c -0.0633,-0.01657 -0.182474,-0.01717 -0.264831,-0.0013 -0.08236,0.01584 -0.03057,0.02939 0.115092,0.03013 0.145656,7.35e-4 0.213039,-0.01222 0.149739,-0.02879 z m 6.850531,-0.0025 c -0.118998,-0.01474 -0.297758,-0.01443 -0.397245,6.75e-4 -0.09949,0.01511 -0.0021,0.02716 0.21636,0.02679 0.218485,-3.98e-4 0.299884,-0.01273 0.180885,-0.02747 z"
     id="path5170"
     inkscape:connector-curvature="0" /><path
     style="fill:#ffe6d5;stroke-width:0.06620762"
     d="m 74.275316,83.488612 c -4.09e-4,-0.07283 0.49662,-2.664857 1.104509,-5.760063 l 1.105254,-5.627649 0.542666,-0.01918 0.542667,-0.01918 -0.288981,0.61505 c -0.513259,1.092391 -0.860865,2.270782 -1.558306,5.282688 -0.669192,2.889911 -1.445971,5.855976 -1.447809,5.528337 z"
     id="path5172"
     inkscape:connector-curvature="0" /><path
     style="fill:#ffe6d5;stroke-width:0.06620762"
     d="M 64.334794,101.81585 C 56.359707,101.61419 48.595352,98.913434 42.180283,94.1096 36.080199,89.541638 31.484798,83.34667 28.886325,76.188277 26.896724,70.707233 26.179949,64.62801 26.83144,58.760064 28.552945,43.25455 39.598466,30.149076 54.588734,25.826127 c 4.032106,-1.162793 8.011772,-1.64564 12.26195,-1.487722 13.088925,0.486328 24.987814,7.548126 31.783289,18.862866 2.700167,4.495891 4.490237,9.625427 5.153867,14.768655 0.25908,2.007935 0.30119,2.720026 0.30119,5.093633 0,2.373607 -0.0421,3.085698 -0.30119,5.093633 -1.32097,10.237737 -6.88956,19.714725 -15.254159,25.960538 -7.003953,5.229827 -15.457775,7.91914 -24.198887,7.69812 z m 3.255458,-0.61864 c 5.129926,-0.3445 10.230559,-1.702957 14.78612,-3.937994 4.179777,-2.050669 7.23511,-4.344577 10.572478,-7.937695 6.274496,-6.755323 9.60575,-14.044404 10.42695,-22.815165 0.14022,-1.497531 0.16056,-5.948236 0.0336,-7.349047 -0.43872,-4.840229 -1.45278,-8.278874 -3.901804,-13.230778 -1.355595,-2.741011 -2.920247,-5.137568 -4.957561,-7.59345 -0.888394,-1.070918 -3.229162,-3.421627 -4.328059,-4.346444 -7.417427,-6.242406 -16.859453,-9.455023 -26.615466,-9.055822 -2.43942,0.09982 -4.291704,0.33195 -6.585887,0.825357 -6.267031,1.347843 -12.118582,4.306573 -16.884717,8.537451 -6.025234,5.348574 -10.332739,12.578602 -12.077839,20.272321 -1.022945,4.509915 -1.206176,9.315958 -0.529693,13.893537 0.966331,6.538898 3.664907,12.825209 7.844332,18.273305 3.589368,4.678926 8.567498,8.617903 14.17014,11.212209 3.897377,1.804687 7.702478,2.833145 11.911916,3.219595 1.145742,0.10519 4.768059,0.12444 6.13549,0.0326 z"
     id="path5174"
     inkscape:connector-curvature="0" /></svg>