<?xml version="1.0" encoding="UTF-8" standalone="no"?>
<svg
   xmlns:dc="http://purl.org/dc/elements/1.1/"
   xmlns:cc="http://creativecommons.org/ns#"
   xmlns:rdf="http://www.w3.org/1999/02/22-rdf-syntax-ns#"
   xmlns:svg="http://www.w3.org/2000/svg"
   xmlns="http://www.w3.org/2000/svg"
   xmlns:sodipodi="http://sodipodi.sourceforge.net/DTD/sodipodi-0.dtd"
   xmlns:inkscape="http://www.inkscape.org/namespaces/inkscape"
   version="1.1"
   x="0px"
   y="0px"
   viewBox="0 0 256 256"
   xml:space="preserve"
   id="svg52"
   sodipodi:docname="username.svg"
   width="256"
   height="256"
   inkscape:version="0.92.1 r15371"><metadata
     id="metadata58"><rdf:RDF><cc:Work
         rdf:about=""><dc:format>image/svg+xml</dc:format><dc:type
           rdf:resource="http://purl.org/dc/dcmitype/StillImage" /><dc:title /></cc:Work></rdf:RDF></metadata><defs
     id="defs56" /><sodipodi:namedview
     pagecolor="#ffffff"
     bordercolor="#666666"
     borderopacity="1"
     objecttolerance="10"
     gridtolerance="10"
     guidetolerance="10"
     inkscape:pageopacity="0"
     inkscape:pageshadow="2"
     inkscape:window-width="1920"
     inkscape:window-height="1017"
     id="namedview54"
     showgrid="false"
     inkscape:zoom="1.1407786"
     inkscape:cx="77.75"
     inkscape:cy="135.31714"
     inkscape:window-x="-8"
     inkscape:window-y="-8"
     inkscape:window-maximized="1"
     inkscape:current-layer="svg52" /><g
     id="g46"
     transform="translate(49.965874,41.2344)"
     style="fill:#dde9af"><g
       id="g8"
       style="fill:#dde9af"><ellipse
         transform="matrix(0.9676,-0.2526,0.2526,0.9676,-3.5921,17.0255)"
         cx="64.500999"
         cy="22.5"
         rx="22.496"
         ry="22.495001"
         id="ellipse2"
         style="fill:#dde9af" /><path
         d="m 143,140.501 c -0.001,-0.001 -20.545,-0.002 -37.514,-0.002 3.454,-3.974 7.723,-8.169 11.341,-11.476 2.293,-2.106 4.337,-3.881 5.786,-5.117 0.726,-0.616 1.304,-1.099 1.69,-1.42 0.192,-0.158 0.339,-0.279 0.434,-0.355 0.094,-0.076 0.115,-0.094 0.115,-0.094 0.406,-0.329 0.778,-0.683 1.133,-1.049 6.597,-3.27 12.106,-9.104 10.581,-21.58 -4.394,-21.93 -9.835,-33.97 -22.532,-51.061 -9.306,-12.375 -22.508,-12.967 -29.972,-8.309 -7.453,4.651 -7.358,17.113 -1.579,25.694 1.776,-5.826 1.874,-10.334 1.869,-11.407 0,-0.211 -0.004,-0.351 -0.007,-0.431 -0.324,-5.466 3.887,-10.212 9.39,-10.543 0.203,-0.011 0.405,-0.017 0.607,-0.017 5.276,0 9.656,4.13 9.974,9.403 0.009,0.153 0.036,0.698 0.036,1.578 -0.012,4.953 -0.847,14.965 -6.309,26.416 -1.002,2.118 -2.234,4.402 -3.735,6.775 3.285,6.705 6.229,13.807 8.041,20.902 -2.748,2.451 -6.055,5.517 -9.428,8.921 -4.093,4.149 -8.273,8.747 -11.769,13.683 -1.746,2.483 -3.334,5.051 -4.634,7.932 -1.267,2.884 -2.365,6.122 -2.401,10.244 -0.087,3.821 1.385,8.73 4.594,12.178 2.36,2.62 5.762,4.135 9.288,4.135 14,0 54.998,0 55,0 6.9,0 12.5,-5.598 12.5,-12.5 0.001,-6.903 -5.599,-12.5 -12.499,-12.5 z"
         id="path4"
         inkscape:connector-curvature="0"
         style="fill:#dde9af" /><path
         d="m 102.318,52.855 c -0.265,-4.409 -4.052,-7.771 -8.463,-7.507 -4.41,0.264 -7.771,4.051 -7.507,8.462 h -0.003 v 0.023 c 0.003,0.086 0.007,0.248 0.007,0.481 0.009,1.703 -0.231,7.148 -2.542,13.787 -0.545,1.567 -1.204,3.199 -2.004,4.865 -4.238,8.74 -11.973,18.54 -28.049,25.72 -4.04,1.789 -5.865,6.515 -4.073,10.555 1.324,2.986 4.251,4.761 7.318,4.761 1.083,0 2.184,-0.221 3.237,-0.688 16.494,-7.263 26.848,-17.774 33.01,-27.925 1.128,-1.859 2.133,-3.707 2.99,-5.52 5.59,-11.723 6.102,-21.862 6.113,-25.556 -0.001,-0.809 -0.025,-1.311 -0.034,-1.458 z"
         id="path6"
         inkscape:connector-curvature="0"
         style="fill:#dde9af" /></g><g
       id="g44"
       style="fill:#dde9af"><g
         id="g36"
         style="fill:#dde9af"><circle
           cx="19"
           cy="110.065"
           r="4.0710001"
           id="circle10"
           style="fill:#dde9af" /><g
           id="g16"
           style="fill:#dde9af"><ellipse
             cx="19"
             cy="97.512001"
             rx="2.714"
             ry="6.447"
             id="ellipse12"
             style="fill:#dde9af" /><ellipse
             cx="19"
             cy="122.618"
             rx="2.714"
             ry="6.447"
             id="ellipse14"
             style="fill:#dde9af" /></g><g
           id="g22"
           style="fill:#dde9af"><ellipse
             transform="matrix(0.707,-0.7072,0.7072,0.707,-63.3918,49.3599)"
             cx="27.877001"
             cy="101.188"
             rx="6.4460001"
             ry="2.7149999"
             id="ellipse18"
             style="fill:#dde9af" /><ellipse
             transform="matrix(0.7071,-0.7071,0.7071,0.7071,-81.1385,41.9945)"
             cx="10.123"
             cy="118.942"
             rx="6.4460001"
             ry="2.714"
             id="ellipse20"
             style="fill:#dde9af" /></g><g
           id="g28"
           style="fill:#dde9af"><ellipse
             cx="31.554001"
             cy="110.065"
             rx="6.4460001"
             ry="2.714"
             id="ellipse24"
             style="fill:#dde9af" /><ellipse
             cx="6.4460001"
             cy="110.065"
             rx="6.4460001"
             ry="2.714"
             id="ellipse26"
             style="fill:#dde9af" /></g><g
           id="g34"
           style="fill:#dde9af"><ellipse
             transform="matrix(0.7072,-0.707,0.707,0.7072,-75.9321,54.5371)"
             cx="27.877001"
             cy="118.942"
             rx="2.7149999"
             ry="6.4460001"
             id="ellipse30"
             style="fill:#dde9af" /><ellipse
             transform="matrix(0.7071,-0.7071,0.7071,0.7071,-68.5865,36.7967)"
             cx="10.123"
             cy="101.188"
             rx="2.714"
             ry="6.4460001"
             id="ellipse32"
             style="fill:#dde9af" /></g></g><path
         d="m 26.975,142.458 c -0.582,1.705 -2.461,2.606 -8.002,0.709 -5.542,-1.896 -12.648,-5.875 -12.064,-7.58 0.584,-1.704 8.637,-0.492 14.178,1.406 5.54,1.896 6.472,3.759 5.888,5.465 z"
         id="path38"
         inkscape:connector-curvature="0"
         style="fill:#dde9af" /><path
         d="m 34.666,141.352 c -1.683,-0.645 -2.517,-2.553 -0.424,-8.023 2.094,-5.47 6.322,-12.431 8.005,-11.787 1.684,0.644 0.185,8.648 -1.909,14.119 -2.093,5.47 -3.988,6.336 -5.672,5.691 z"
         id="path40"
         inkscape:connector-curvature="0"
         style="fill:#dde9af" /><path
         d="m 30.61,159.508 c 0.623,-3.466 0.887,-6.812 0.887,-9.961 -0.005,-14.166 -5.131,-24.413 -5.169,-24.494 -0.246,-0.495 -0.848,-0.695 -1.34,-0.447 -0.494,0.246 -0.694,0.848 -0.446,1.34 H 24.54 c 0,0.002 0.295,0.59 0.759,1.729 1.393,3.421 4.2,11.612 4.198,21.872 0,3.158 -0.274,6.514 -0.927,9.988 C 23.863,159.746 15,161.011 15,165.5 h 30 c 0,-4.766 -9.99,-5.897 -14.39,-5.992 z"
         id="path42"
         inkscape:connector-curvature="0"
         style="fill:#dde9af" /></g></g></svg>