<?xml version="1.0" encoding="UTF-8" standalone="no"?>
<svg
   xmlns:dc="http://purl.org/dc/elements/1.1/"
   xmlns:cc="http://creativecommons.org/ns#"
   xmlns:rdf="http://www.w3.org/1999/02/22-rdf-syntax-ns#"
   xmlns:svg="http://www.w3.org/2000/svg"
   xmlns="http://www.w3.org/2000/svg"
   xmlns:sodipodi="http://sodipodi.sourceforge.net/DTD/sodipodi-0.dtd"
   xmlns:inkscape="http://www.inkscape.org/namespaces/inkscape"
   version="1.1"
   x="0px"
   y="0px"
   viewBox="0 0 128 128"
   xml:space="preserve"
   id="svg10"
   sodipodi:docname="wheelbar.svg"
   width="128"
   height="128"
   inkscape:version="0.92.1 r15371"><metadata
     id="metadata16"><rdf:RDF><cc:Work
         rdf:about=""><dc:format>image/svg+xml</dc:format><dc:type
           rdf:resource="http://purl.org/dc/dcmitype/StillImage" /><dc:title /></cc:Work></rdf:RDF></metadata><defs
     id="defs14" /><sodipodi:namedview
     pagecolor="#ffffff"
     bordercolor="#666666"
     borderopacity="1"
     objecttolerance="10"
     gridtolerance="10"
     guidetolerance="10"
     inkscape:pageopacity="0"
     inkscape:pageshadow="2"
     inkscape:window-width="1920"
     inkscape:window-height="1017"
     id="namedview12"
     showgrid="false"
     inkscape:zoom="1.888"
     inkscape:cx="50"
     inkscape:cy="62.5"
     inkscape:window-x="-8"
     inkscape:window-y="-8"
     inkscape:window-maximized="1"
     inkscape:current-layer="svg10" /><style
     type="text/css"
     id="style2">
	.st0{fill:none;stroke:#000000;stroke-width:2;stroke-linecap:round;stroke-linejoin:round;stroke-miterlimit:10;}
	.st1{fill:none;stroke:#000000;stroke-width:2;stroke-miterlimit:10;}
</style><path
     d="m 104.54915,34.89322 h -5.599997 c -0.5,0 -1,0.2 -1.2,0.6 h -1.9 c -0.5,0 -0.9,0.3 -1,0.8 l -2,9.2 h -62.9 c -0.3,0 -0.6,0.2 -0.8,0.4 -0.2,0.3 -0.3,0.7 -0.2,1 l 5.5,16 c -5,2.7 -8.4,8 -8.4,14.1 0,8.9 7.2,16.1 16.1,16.1 8.9,0 16.1,-7.2 16.1,-16.1 0,-0.6 0,-1.3 -0.1,-1.9 l 11.8,-2.1 12.8,18.2 c 0.2,0.3 0.5,0.4 0.8,0.4 0.1,0 0.1,0 0.2,0 0.4,-0.1 0.7,-0.4 0.8,-0.8 l 5,-22 c 0,0 0,0 0,0 0,0 0,0 0,0 l 4.8,-22 c 0,0 0,0 0,0 l 2,-9.2 h 1.1 c 0.3,0.4 0.7,0.6 1.2,0.6 h 5.599997 c 0.9,0 1.6,-0.7 1.6,-1.6 0.3,-0.9 -0.4,-1.7 -1.3,-1.7 z m -62.299997,56.2 c -7.8,0 -14.1,-6.3 -14.1,-14.1 0,-7.8 6.3,-14.1 14.1,-14.1 6.6,0 12.1,4.5 13.7,10.6 l -7,1.3 c -0.9,-2.8 -3.6,-4.8 -6.7,-4.8 -3.9,0 -7,3.2 -7,7 0,3.8 3.2,7 7,7 3.8,0 7,-3.2 7,-7 0,-0.1 0,-0.2 0,-0.3 l 7,-1.3 c 0.1,0.5 0.1,1 0.1,1.5 0,7.9 -6.3,14.2 -14.1,14.2 z m 0,-13.1 c 0.1,0 0.1,0 0.2,0 l 4.9,-0.9 c -0.1,2.7 -2.3,4.9 -5,4.9 -2.8,0 -5,-2.3 -5,-5 0,-2.7 2.3,-5 5,-5 2.1,0 3.9,1.3 4.7,3.2 l -4.9,0.9 c -0.5,0.1 -0.9,0.6 -0.8,1.2 0,0.4 0.4,0.7 0.9,0.7 z m 41,10.1 -11,-15.5 15.2,-2.8 z m 4.6,-20.4 -30,5.5 c -1.7,-7 -8.1,-12.3 -15.6,-12.3 -2.1,0 -4.1,0.4 -5.9,1.1 l -5,-14.5 h 60.9 z"
     id="path4"
     inkscape:connector-curvature="0"
     style="fill:#dde9af" /></svg>