<?xml version="1.0" encoding="UTF-8" standalone="no"?>
<!-- Created with Inkscape (http://www.inkscape.org/) -->

<svg
   xmlns:dc="http://purl.org/dc/elements/1.1/"
   xmlns:cc="http://creativecommons.org/ns#"
   xmlns:rdf="http://www.w3.org/1999/02/22-rdf-syntax-ns#"
   xmlns:svg="http://www.w3.org/2000/svg"
   xmlns="http://www.w3.org/2000/svg"
   xmlns:sodipodi="http://sodipodi.sourceforge.net/DTD/sodipodi-0.dtd"
   xmlns:inkscape="http://www.inkscape.org/namespaces/inkscape"
   width="128mm"
   height="128mm"
   viewBox="0 0 128 128"
   version="1.1"
   id="svg3714"
   inkscape:version="0.92.1 r15371"
   sodipodi:docname="drop-down.svg">
  <defs
     id="defs3708" />
  <sodipodi:namedview
     id="base"
     pagecolor="#ffffff"
     bordercolor="#666666"
     borderopacity="1.0"
     inkscape:pageopacity="0.0"
     inkscape:pageshadow="2"
     inkscape:zoom="1.4"
     inkscape:cx="207.05241"
     inkscape:cy="342.66878"
     inkscape:document-units="mm"
     inkscape:current-layer="layer1"
     showgrid="false"
     inkscape:window-width="1920"
     inkscape:window-height="1017"
     inkscape:window-x="1912"
     inkscape:window-y="-8"
     inkscape:window-maximized="1"
     inkscape:pagecheckerboard="true" />
  <metadata
     id="metadata3711">
    <rdf:RDF>
      <cc:Work
         rdf:about="">
        <dc:format>image/svg+xml</dc:format>
        <dc:type
           rdf:resource="http://purl.org/dc/dcmitype/StillImage" />
        <dc:title></dc:title>
      </cc:Work>
    </rdf:RDF>
  </metadata>
  <g
     inkscape:label="Layer 1"
     inkscape:groupmode="layer"
     id="layer1"
     transform="translate(0,-169)">
    <path
       inkscape:connector-curvature="0"
       d="M 71.815476,99.492322"
       id="path3680"
       style="stroke-width:0.26458332;fill:#e3e2db" />
    <path
       inkscape:connector-curvature="0"
       d="m 120.48747,208.60271 c 0,0.37042 -0.1323,0.71438 -0.39688,0.92604 l -54.371879,54.39833 c -0.238125,0.26459 -0.608542,0.39688 -0.926042,0.39688 -0.3175,0 -0.661458,-0.13229 -0.926042,-0.39688 L 9.4682936,209.50229 c -0.238125,-0.23812 -0.396875,-0.58208 -0.396875,-0.92604 0,-0.15875 0.02646,-0.34396 0.105833,-0.50271 0.211667,-0.5027 0.687917,-0.8202 1.2170844,-0.8202 H 119.16455 c 0.52917,0 1.00542,0.3175 1.21708,0.8202 0.0794,0.18521 0.10584,0.37042 0.10584,0.52917 m 2.64583,0 c 0,-0.52917 -0.10583,-1.03187 -0.29104,-1.50812 v -0.0265 -0.0265 c -0.635,-1.48167 -2.06375,-2.43417 -3.65125,-2.43417 H 10.420794 c -1.5875004,0 -3.0427084,0.9525 -3.6512504,2.43417 -0.211666,0.47625 -0.3175,1.00541 -0.3175,1.53458 0,1.05833 0.423334,2.03729 1.164167,2.80458 l 54.3983334,54.39834 c 0.740833,0.74083 1.772708,1.16416 2.804583,1.16416 1.058334,0 2.116667,-0.44979 2.831042,-1.21708 l 54.318961,-54.31896 c 0.74084,-0.68791 1.16417,-1.71979 1.16417,-2.80458 z"
       id="path3682"
       style="stroke-width:0.26458332;fill:#e3e2db" />
    <rect
       style="fill:#e3e2db;stroke-width:0.26458332"
       id="rect3726"
       width="18.898809"
       height="23.986368"
       x="52.916664"
       y="75.505951" />
    <rect
       style="fill:#e3e2db;stroke-width:0.26458332"
       id="rect3728"
       width="108.10119"
       height="108.10119"
       x="0.75595242"
       y="7.4702382" />
    <rect
       style="fill:#e3e2db;stroke-width:0.26458332"
       id="rect3736"
       width="10.58333"
       height="16.630953"
       x="98.273804"
       y="7.4702382" />
    <rect
       style="fill:#e3e2db;stroke-width:0.26458332"
       id="rect3740"
       width="21.070118"
       height="95.25"
       x="7.5595236"
       y="25.613094" />
    <rect
       style="fill:#e3e2db;stroke-width:0.26458332"
       id="rect3742"
       width="95.97757"
       height="99.029762"
       x="7.5595236"
       y="25.613094" />
    <path
       style="fill:#e3e2db;stroke-width:0.71428573"
       d="M 238.83813,368.31005 C 234.75532,366.39413 27.53203,158.94062 26.005363,155.24083 c -3.25966,-7.89959 1.074214,-17.0958 9.192924,-19.5068 5.357481,-1.591 414.065053,-1.591 419.422533,0 8.29248,2.46261 12.60833,12.15254 8.91661,20.01958 -1.91593,4.0828 -209.36943,211.30609 -213.06922,212.83276 -3.55628,1.46745 -8.14652,1.35839 -11.63008,-0.27632 z M 351.51395,256.28657 c 94.06369,-94.06369 104.10989,-104.32599 104.10989,-106.34944 0,-1.23175 -0.61446,-2.99837 -1.36546,-3.92582 l -1.36546,-1.68628 H 245.04765 c -203.387411,0 -207.877505,0.0292 -209.348819,1.36071 -0.996835,0.90212 -1.503563,2.2252 -1.503563,3.92582 0,2.45605 4.426962,6.99209 104.109892,106.67501 98.58872,98.58873 104.24218,104.10989 106.60439,104.10989 2.36222,0 8.01568,-5.52116 106.6044,-104.10989 z"
       id="path22"
       inkscape:connector-curvature="0"
       transform="matrix(0.26458333,0,0,0.26458333,0,169)" />
    <path
       style="fill:#e3e2db;stroke-width:0.71428573"
       d=""
       id="path24"
       inkscape:connector-curvature="0"
       transform="matrix(0.26458333,0,0,0.26458333,0,169)" />
    <path
       style="fill:#e3e2db;stroke-width:0.71428573"
       d="m 446.5167,134.88485 c 1.08035,-0.16366 2.84821,-0.16366 3.92857,0 1.08036,0.16366 0.19643,0.29757 -1.96429,0.29757 -2.16071,0 -3.04464,-0.13391 -1.96428,-0.29757 z"
       id="path26"
       inkscape:connector-curvature="0"
       transform="matrix(0.26458333,0,0,0.26458333,0,169)" />
    <path
       style="fill:#e3e2db;stroke-width:0.71428573"
       d="M 238.48098,367.46701 C 235.76814,365.84416 33.371962,163.63733 28.911158,158.09326 c -1.493391,-1.85605 -2.978128,-4.54017 -3.299414,-5.96471 -0.805655,-3.57217 0.75374,-9.14712 3.311087,-11.83737 4.563573,-4.80074 0.938892,-4.50105 59.201008,-4.89472 l 52.857141,-0.35714 -51.428569,-0.36424 c -28.285715,-0.20033 41.624999,-0.36424 155.357139,-0.36424 113.73215,0 183.64286,0.16391 155.35715,0.36424 l -51.42857,0.36424 52.85714,0.35714 c 51.23317,0.34617 52.93163,0.40104 55.28141,1.78572 1.33335,0.78571 3.40816,2.64588 4.6107,4.13371 1.80409,2.23209 2.23658,3.49285 2.47325,7.20974 0.20627,3.23933 -0.043,5.1424 -0.88739,6.7753 -2.18376,4.22293 -203.93071,205.97934 -212.11001,212.11995 -2.8214,2.11818 -9.08018,2.14112 -12.58225,0.0462 z m 10.32826,-9.8981 c 1.51857,-1.55516 3.0372,-2.65689 3.37473,-2.44828 0.79681,0.49245 197.93963,-196.65712 197.44716,-197.45394 -0.20565,-0.33276 1.05857,-2.01089 2.8094,-3.7292 3.50218,-3.43713 4.00351,-5.64833 1.9002,-8.38122 l -1.25135,-1.62591 -206.76848,0.23702 c -113.72267,0.13037 -207.688967,0.42005 -208.813996,0.64375 -4.287041,0.85241 -4.507248,4.84221 -0.484077,8.77073 1.555158,1.51857 2.657294,3.03654 2.449191,3.37325 -0.491056,0.79455 197.181412,198.44135 198.467112,198.44135 0.53675,0 2.0663,1.125 3.399,2.5 1.3327,1.375 2.93766,2.5 3.56658,2.5 0.62892,0 2.38596,-1.2724 3.90453,-2.82755 z"
       id="path28"
       inkscape:connector-curvature="0"
       transform="matrix(0.26458333,0,0,0.26458333,0,169)" />
    <path
       style="fill:#e3e2db;stroke-width:0.71428573"
       d="m 447.58813,135.63769 c 0.49107,-0.19815 1.29464,-0.19815 1.78571,0 0.49107,0.19815 0.0893,0.36028 -0.89286,0.36028 -0.98214,0 -1.38393,-0.16213 -0.89285,-0.36028 z"
       id="path30"
       inkscape:connector-curvature="0"
       transform="matrix(0.26458333,0,0,0.26458333,0,169)" />
    <path
       style="fill:#e3e2db;stroke-width:0.71428573"
       d="M 239.46965,368.26678 C 237.7426,367.5691 154.6939,285.25928 90.598998,220.72065 29.602377,159.30175 26.624297,156.1897 25.723299,152.92656 c -1.590625,-5.76077 1.668901,-12.8596 7.328,-15.95944 1.992331,-1.09133 6.49468,-1.24947 44.715397,-1.57066 l 42.500004,-0.35714 -40.714289,-0.366 c -22.392857,-0.2013 52.017859,-0.366 165.357139,-0.366 113.33929,0 187.75,0.1647 165.35715,0.366 l -40.71429,0.366 42.5,0.35714 c 40.87143,0.34346 42.5929,0.41189 44.92427,1.78572 1.33335,0.78571 3.40816,2.64588 4.6107,4.13371 1.80409,2.23209 2.23658,3.49285 2.47325,7.20974 0.20052,3.14912 -0.0467,5.14967 -0.82173,6.64832 -2.32125,4.48881 -203.37807,205.80923 -211.47223,211.7495 -2.31093,1.69598 -3.46751,2.03673 -6.78572,1.99916 -2.19998,-0.0249 -4.68007,-0.32002 -5.5113,-0.65583 z m 9.79663,-10.90603 c 8.41821,-6.91563 199.05998,-197.15674 198.74059,-198.32291 -0.0644,-0.2349 1.62316,-2.25144 3.75,-4.48121 4.17761,-4.37979 4.45391,-5.23895 2.74654,-8.54064 l -1.12043,-2.16667 -207.27243,0.36197 c -113.99983,0.19909 -207.754568,0.42918 -208.343854,0.51131 -0.589285,0.0821 -1.646105,0.64961 -2.348488,1.26107 -1.954856,1.70181 -0.882281,4.9532 2.928388,8.87708 1.812233,1.86607 3.025487,3.39286 2.696119,3.39286 -0.815899,0 85.124865,86.40072 145.586105,146.36528 45.32044,44.94815 56.64579,55.77757 58.33183,55.77757 0.33568,0 2.27322,-1.36607 4.30563,-3.03571 z"
       id="path32"
       inkscape:connector-curvature="0"
       transform="matrix(0.26458333,0,0,0.26458333,0,169)" />
    <path
       style="fill:#e3e2db;stroke-width:0.71428573"
       d="M 239.43081,368.25242 C 237.49856,367.47348 172.65403,303.24545 100.6122,230.75361 27.111557,156.79384 26.63598,156.29812 25.642818,152.6098 c -1.552612,-5.76596 1.807744,-12.57297 7.838164,-15.87763 1.415529,-0.7757 8.9673,-1.0526 36.428572,-1.33571 l 34.642856,-0.35714 -32.857142,-0.36797 c -18.071429,-0.20239 59.875002,-0.36798 173.214282,-0.36798 113.33929,0 191.28572,0.16559 173.21429,0.36798 l -32.85714,0.36797 34.64285,0.35714 c 30.512,0.31456 34.89838,0.49859 36.78572,1.54338 2.83167,1.56754 5.79824,4.75983 6.74027,7.25312 0.93786,2.48224 0.98894,8.36478 0.0931,10.72103 -0.36665,0.96436 -16.03629,17.25163 -34.82143,36.19393 -18.78513,18.9423 -34.26467,34.73599 -34.39897,35.09708 -0.43831,1.17851 -139.67721,138.65533 -142.54156,140.73768 -2.30091,1.67274 -3.4819,2.01733 -6.78572,1.97993 -2.19998,-0.0249 -4.69755,-0.32648 -5.55014,-0.67019 z m 9.93547,-11.27432 c 2.06666,-1.8801 5.52542,-5.01403 7.68613,-6.96429 6.90234,-6.23004 187.81453,-187.04092 187.48022,-187.37523 -0.17665,-0.17665 2.2466,-2.99585 5.38501,-6.26489 3.13841,-3.26904 5.7062,-6.46416 5.7062,-7.10026 0,-0.6361 -0.5625,-2.13326 -1.25,-3.32702 l -1.25,-2.17047 -206.78571,0.41974 c -113.73215,0.23086 -207.571382,0.58905 -208.531636,0.79598 -5.236664,1.12845 -4.326151,5.10176 2.786543,12.15995 2.728507,2.7076 4.832432,5.13081 4.675388,5.38491 -0.372158,0.60217 182.029585,182.73458 191.590895,191.30799 4.0188,3.60357 7.63147,6.55195 8.02816,6.55195 0.39667,0 2.41214,-1.53826 4.4788,-3.41836 z"
       id="path34"
       inkscape:connector-curvature="0"
       transform="matrix(0.26458333,0,0,0.26458333,0,169)" />
    <path
       style="fill:#e3e2db;stroke-width:0.71428573"
       d="M 239.52815,368.28843 C 237.46398,367.45171 150.281,281.17597 92.607294,222.89646 26.459509,156.05386 26.613831,156.21587 25.637796,152.59115 c -1.5473,-5.74623 1.82244,-12.55983 7.843186,-15.85889 1.398798,-0.76647 8.208523,-1.05588 31.428572,-1.33571 l 29.642857,-0.35723 -27.857143,-0.36976 c -15.321429,-0.20337 64.875002,-0.36976 178.214282,-0.36976 113.33929,0 193.53572,0.16639 178.21429,0.36976 l -27.85714,0.36976 29.64285,0.35714 c 32.87483,0.39609 31.84465,0.24547 36.28731,5.30539 2.51376,2.86301 3.32404,6.05437 2.83347,11.15984 -0.31695,3.29859 -0.75038,3.95736 -6.67046,10.13844 -38.16473,39.84728 -201.58581,202.68367 -206.37889,205.6405 -2.26627,1.39805 -8.70369,1.76217 -11.45283,0.6478 z m 12.38296,-13.7457 c 13.95812,-13.0468 24.99295,-23.95476 103.8636,-102.66944 46.2437,-46.15225 83.93188,-84.06075 83.75152,-84.24111 -0.18038,-0.18037 2.9945,-3.73496 7.05527,-7.89909 9.17264,-9.40615 9.65845,-10.22438 7.952,-13.39307 l -1.27747,-2.37213 -121.49467,0.0968 c -66.82206,0.0532 -160.65468,0.2943 -208.51692,0.53571 -83.244355,0.41988 -87.063769,0.49573 -87.978329,1.74698 -1.681123,2.30002 0.216534,5.42823 8.342295,13.75192 4.250863,4.35441 7.572575,8.07338 7.381582,8.26437 -0.472962,0.47296 171.959552,172.4749 183.414852,182.95685 5.31669,4.86493 9.73817,8.36168 10.57299,8.36168 0.79453,0 3.88855,-2.29351 6.93328,-5.13945 z"
       id="path36"
       inkscape:connector-curvature="0"
       transform="matrix(0.26458333,0,0,0.26458333,0,169)" />
    <path
       style="fill:#e3e2db;stroke-width:0.71428573"
       d=""
       id="path38"
       inkscape:connector-curvature="0"
       transform="matrix(0.26458333,0,0,0.26458333,0,169)" />
    <path
       style="fill:#e3e2db;stroke-width:0.71428573"
       d=""
       id="path40"
       inkscape:connector-curvature="0"
       transform="matrix(0.26458333,0,0,0.26458333,0,169)" />
    <path
       style="fill:#dde9af;stroke-width:0.71428573"
       d="M 238.48098,368.55531 C 234.65264,366.91533 27.475671,159.50535 25.91834,155.75361 c -3.448611,-8.30801 0.471855,-17.18348 8.991214,-20.35505 2.021164,-0.75244 35.744893,-0.9844 176.071426,-1.21108 95.46429,-0.15421 189.32143,-0.0256 208.57143,0.28573 33.52163,0.5422 35.12069,0.62914 37.85714,2.05829 4.28448,2.23763 6.98481,6.51162 7.35596,11.64271 0.16764,2.31755 -0.0876,5.45314 -0.56718,6.96799 -0.7134,2.25336 -19.85639,21.75569 -105.25895,107.23479 -71.24975,71.31361 -105.30886,104.92887 -107.29105,105.89286 -3.49145,1.69797 -9.56275,1.8296 -13.16735,0.28546 z m 17.60907,-18.08083 c 12.39879,-11.5423 189.2294,-188.73837 194.75475,-195.15723 4.35753,-5.0622 5.03048,-7.39683 2.73177,-9.47714 -1.24579,-1.12742 -14.90712,-1.19307 -208.81891,-1.00356 -223.170033,0.2181 -209.848106,-0.0182 -209.848106,3.72268 0,0.8576 1.813115,3.79146 4.029145,6.51968 4.986983,6.13963 194.610281,195.85987 200.829371,200.93204 2.47575,2.01918 4.93555,3.67123 5.46621,3.67123 0.53067,0 5.41577,-4.14346 10.85577,-9.2077 z"
       id="path42"
       inkscape:connector-curvature="0"
       transform="matrix(0.26458333,0,0,0.26458333,0,169)" />
  </g>
</svg>
