<?xml version="1.0" encoding="UTF-8" standalone="no"?>
<svg
   xmlns:dc="http://purl.org/dc/elements/1.1/"
   xmlns:cc="http://creativecommons.org/ns#"
   xmlns:rdf="http://www.w3.org/1999/02/22-rdf-syntax-ns#"
   xmlns:svg="http://www.w3.org/2000/svg"
   xmlns="http://www.w3.org/2000/svg"
   xmlns:sodipodi="http://sodipodi.sourceforge.net/DTD/sodipodi-0.dtd"
   xmlns:inkscape="http://www.inkscape.org/namespaces/inkscape"
   version="1.1"
   x="0px"
   y="0px"
   viewBox="0 0 128 128"
   xml:space="preserve"
   id="svg10"
   sodipodi:docname="shares.svg"
   width="128"
   height="128"
   inkscape:version="0.92.1 r15371"><metadata
     id="metadata16"><rdf:RDF><cc:Work
         rdf:about=""><dc:format>image/svg+xml</dc:format><dc:type
           rdf:resource="http://purl.org/dc/dcmitype/StillImage" /><dc:title></dc:title></cc:Work></rdf:RDF></metadata><defs
     id="defs14" /><sodipodi:namedview
     pagecolor="#ffffff"
     bordercolor="#666666"
     borderopacity="1"
     objecttolerance="10"
     gridtolerance="10"
     guidetolerance="10"
     inkscape:pageopacity="0"
     inkscape:pageshadow="2"
     inkscape:window-width="1920"
     inkscape:window-height="1017"
     id="namedview12"
     showgrid="false"
     inkscape:zoom="1.888"
     inkscape:cx="50"
     inkscape:cy="62.5"
     inkscape:window-x="1912"
     inkscape:window-y="-8"
     inkscape:window-maximized="1"
     inkscape:current-layer="svg10" /><g
     id="g4"
     transform="translate(14.830508,13.063559)"
     style="fill:#dde9af"><path
       d="m 27.8,60.8 c 3.6,0 6.8,-1.8 8.7,-4.6 l 26.1,19.1 c -0.8,1.5 -1.3,3.2 -1.3,5 0,5.8 4.7,10.5 10.5,10.5 5.8,0 10.4,-4.8 10.4,-10.6 0,-5.8 -4.7,-10.5 -10.5,-10.5 -3.6,0 -6.8,1.8 -8.7,4.6 l -26,-19 c 0.8,-1.5 1.3,-3.2 1.3,-5 0,-1.8 -0.5,-3.5 -1.3,-5 L 63,26.1 c 1.9,2.8 5.1,4.6 8.7,4.6 5.8,0 10.5,-4.7 10.5,-10.5 0,-5.8 -4.7,-10.4 -10.4,-10.4 -5.7,0 -10.5,4.7 -10.5,10.5 0,1.8 0.5,3.5 1.3,5 L 36.5,44.4 c -1.9,-2.8 -5.1,-4.6 -8.7,-4.6 -5.8,0 -10.5,4.7 -10.5,10.5 0,5.8 4.7,10.5 10.5,10.5 z m 44,10 c 5.2,0 9.5,4.3 9.5,9.5 0,5.2 -4.3,9.5 -9.5,9.5 -5.2,0 -9.5,-4.3 -9.5,-9.5 0,-5.2 4.2,-9.5 9.5,-9.5 z m 0,-60 c 5.2,0 9.5,4.3 9.5,9.5 0,5.2 -4.3,9.5 -9.5,9.5 -5.2,0 -9.5,-4.3 -9.5,-9.5 0,-5.2 4.2,-9.5 9.5,-9.5 z m -44,30 c 5.2,0 9.5,4.3 9.5,9.5 0,5.2 -4.3,9.5 -9.5,9.5 -5.2,0 -9.5,-4.3 -9.5,-9.5 0,-5.2 4.2,-9.5 9.5,-9.5 z"
       id="path2"
       inkscape:connector-curvature="0"
       style="fill:#dde9af" /></g></svg>