<?xml version="1.0" encoding="UTF-8" standalone="no"?>
<svg
   xmlns:dc="http://purl.org/dc/elements/1.1/"
   xmlns:cc="http://creativecommons.org/ns#"
   xmlns:rdf="http://www.w3.org/1999/02/22-rdf-syntax-ns#"
   xmlns:svg="http://www.w3.org/2000/svg"
   xmlns="http://www.w3.org/2000/svg"
   xmlns:sodipodi="http://sodipodi.sourceforge.net/DTD/sodipodi-0.dtd"
   xmlns:inkscape="http://www.inkscape.org/namespaces/inkscape"
   version="1.1"
   x="0px"
   y="0px"
   viewBox="0 0 128 128"
   xml:space="preserve"
   id="svg8"
   sodipodi:docname="threebranches.svg"
   width="128"
   height="128"
   inkscape:version="0.92.1 r15371"><metadata
     id="metadata14"><rdf:RDF><cc:Work
         rdf:about=""><dc:format>image/svg+xml</dc:format><dc:type
           rdf:resource="http://purl.org/dc/dcmitype/StillImage" /><dc:title /></cc:Work></rdf:RDF></metadata><defs
     id="defs12" /><sodipodi:namedview
     pagecolor="#ffffff"
     bordercolor="#666666"
     borderopacity="1"
     objecttolerance="10"
     gridtolerance="10"
     guidetolerance="10"
     inkscape:pageopacity="0"
     inkscape:pageshadow="2"
     inkscape:window-width="1920"
     inkscape:window-height="1017"
     id="namedview10"
     showgrid="false"
     inkscape:zoom="1.888"
     inkscape:cx="50"
     inkscape:cy="62.5"
     inkscape:window-x="-8"
     inkscape:window-y="-8"
     inkscape:window-maximized="1"
     inkscape:current-layer="svg8" /><path
     d="m 104.17119,64.333898 c -0.2,-0.2 -3.9,-4.4 -8.600004,-4.4 -1.1,0 -2.3,0.3 -3.5,0.7 0,-4.7 -4.2,-8.4 -4.4,-8.6 -0.2,-0.2 -0.5,-0.2 -0.7,0 -0.2,0.2 -4.4,3.9 -4.4,8.6 -1.2,-0.5 -2.3,-0.7 -3.5,-0.7 -4.7,0 -8.4,4.2 -8.6,4.4 -0.2,0.2 -0.2,0.5 0,0.7 0.2,0.2 3.9,4.4 8.6,4.4 1.9,0 4,-0.8 6,-2.2 0.7,0.9 1.4,1.6 1.7,1.9 -0.1,12.4 -10.1,22.5 -22.5,22.8 v -42.6 c 0.3,-0.3 1,-0.9 1.7,-1.9 1.5,1 3.6,2.2 6,2.2 4.7,0 8.4,-4.2 8.6,-4.4 0.2,-0.2 0.2,-0.5 0,-0.7 -0.2,-0.2 -3.9,-4.4 -8.6,-4.4 -1.1,0 -2.3,0.3 -3.5,0.7 0,-4.7 -4.2,-8.4 -4.4,-8.6 -0.2,-0.2 -0.5,-0.2 -0.7,0 -0.2,0.2 -4.4,3.9 -4.4,8.6 -1.2,-0.5 -2.3,-0.7 -3.5,-0.7 -4.7,0 -8.4,4.2 -8.6,4.4 -0.2,0.2 -0.2,0.5 0,0.7 0.2,0.2 3.9,4.4 8.6,4.4 2.4,0 4.5,-1.1 6,-2.2 0.7,0.9 1.4,1.6 1.7,1.9 v 42.6 c -12.3,-0.3 -22.3,-10.4 -22.4,-22.8 0.3,-0.3 1,-0.9 1.7,-1.9 2,1.4 4.1,2.2 6,2.2 4.7,0 8.4,-4.2 8.6,-4.4 0.2,-0.2 0.2,-0.5 0,-0.7 -0.2,-0.2 -3.9,-4.4 -8.6,-4.4 -1.1,0 -2.3,0.3 -3.5,0.7 0,-4.7 -4.2,-8.4 -4.4,-8.6 -0.2,-0.2 -0.5,-0.2 -0.7,0 -0.2,0.2 -4.4,3.9 -4.4,8.6 -1.2,-0.5 -2.3,-0.7 -3.5,-0.7 -4.7,0 -8.4,4.2 -8.6,4.4 -0.2,0.2 -0.2,0.5 0,0.7 0.2,0.2 3.9,4.4 8.6,4.4 1.9,0 4,-0.8 6,-2.2 0.7,1 1.4,1.6 1.7,1.9 0.1,13.2 10.9,23.8 24,23.8 0,0 0,0 0,0 0,0 0,0 0,0 0,0 0,0 0,0 0,0 0,0 0,0 13.2,0 23.9,-10.7 24,-23.8 0.3,-0.3 1,-0.9 1.7,-1.9 2,1.4 4.1,2.2 6,2.2 4.700004,0 8.400004,-4.2 8.600004,-4.4 0.3,-0.3 0.3,-0.5 0.2,-0.7 z m -48.200004,0.3 c -1,1 -4,3.7 -7.5,3.7 -2.1,0 -4.1,-1 -5.5,-2 0.1,-0.2 0.2,-0.4 0.4,-0.6 0.1,-0.2 0.2,-0.3 0.3,-0.4 0.2,-0.3 0.3,-0.7 0.5,-1 0,-0.1 0.1,-0.2 0.1,-0.3 0.2,-0.4 0.3,-0.8 0.4,-1.3 0,-0.1 0,-0.2 0.1,-0.3 0.1,-0.3 0.1,-0.5 0.2,-0.8 1.2,-0.6 2.4,-0.9 3.6,-0.9 3.4,0.1 6.5,2.9 7.4,3.9 z m -24,3.7 c -3.5,0 -6.6,-2.8 -7.5,-3.7 1,-1 4,-3.8 7.5,-3.8 1.1,0 2.3,0.3 3.6,0.9 0,0.2 0.1,0.5 0.2,0.8 0,0.1 0,0.2 0.1,0.3 0.1,0.4 0.3,0.8 0.4,1.3 0,0.1 0.1,0.2 0.1,0.3 0.1,0.3 0.3,0.7 0.5,1 0.1,0.2 0.2,0.3 0.3,0.5 0.1,0.2 0.2,0.4 0.4,0.6 -1.5,0.8 -3.5,1.8 -5.6,1.8 z m 6.6,-2.1 c -0.1,-0.1 -0.2,-0.3 -0.3,-0.5 -0.7,-1.1 -1.5,-2.7 -1.7,-4.4 0,-0.2 0,-0.5 0,-0.7 0,-3.5 2.8,-6.6 3.7,-7.5 1,1 3.8,4 3.8,7.5 0,0.2 0,0.5 0,0.7 -0.1,0.5 -0.2,1 -0.3,1.4 -0.4,1.4 -1.1,2.6 -1.7,3.4 -0.7,0.9 -1.3,1.6 -1.7,2 -0.5,-0.3 -1.2,-1 -1.8,-1.9 z m 41,-21.4 c -1,1 -4,3.7 -7.5,3.7 -2.1,0 -4.1,-1 -5.4,-2 0.1,-0.2 0.2,-0.4 0.4,-0.6 0.1,-0.1 0.2,-0.3 0.3,-0.4 0.2,-0.3 0.3,-0.7 0.5,-1 0,-0.1 0.1,-0.2 0.1,-0.3 0.2,-0.4 0.3,-0.8 0.4,-1.3 0,-0.1 0,-0.2 0.1,-0.3 0.1,-0.3 0.1,-0.5 0.2,-0.7 1.2,-0.6 2.4,-0.9 3.6,-0.9 3.3,0.1 6.3,2.9 7.3,3.8 z m -24,3.8 c -3.5,0 -6.6,-2.8 -7.5,-3.7 1,-1 4,-3.8 7.5,-3.8 1.1,0 2.3,0.3 3.6,0.9 0,0.3 0.1,0.5 0.2,0.8 0,0.1 0,0.2 0.1,0.3 0.1,0.4 0.3,0.8 0.4,1.3 0,0.1 0.1,0.2 0.1,0.3 0.1,0.3 0.3,0.7 0.5,1 0.1,0.2 0.2,0.3 0.3,0.5 0.1,0.2 0.2,0.4 0.4,0.6 -1.5,0.8 -3.5,1.8 -5.6,1.8 z m 6.5,-2.2 c -0.8,-1.1 -1.8,-2.9 -2,-4.9 0,-0.2 0,-0.5 0,-0.7 0,-3.5 2.8,-6.6 3.7,-7.5 1,1 3.8,4 3.8,7.5 0,0.2 0,0.5 0,0.7 -0.1,0.5 -0.2,1 -0.3,1.4 -0.4,1.4 -1.1,2.6 -1.7,3.4 -0.7,0.9 -1.3,1.6 -1.7,2 -0.5,-0.3 -1.1,-1 -1.8,-1.9 z m 17,21.9 c -3.5,0 -6.6,-2.8 -7.5,-3.7 1,-1 4,-3.8 7.5,-3.8 1.1,0 2.3,0.3 3.6,0.9 0,0.3 0.1,0.5 0.2,0.8 0,0.1 0,0.2 0.1,0.3 0.1,0.4 0.3,0.8 0.4,1.3 0,0.1 0.1,0.2 0.1,0.3 0.1,0.3 0.3,0.7 0.5,1 0.1,0.2 0.2,0.3 0.3,0.5 0.1,0.2 0.2,0.4 0.3,0.6 -1.4,0.8 -3.4,1.8 -5.5,1.8 z m 8.2,-0.2 c -0.4,-0.4 -1,-1.1 -1.7,-2 -0.1,-0.1 -0.2,-0.3 -0.3,-0.5 -0.7,-1.1 -1.5,-2.7 -1.7,-4.4 0,-0.2 0,-0.5 0,-0.7 0,-3.5 2.8,-6.6 3.7,-7.5 1,1 3.8,4 3.8,7.5 0,0.2 0,0.5 0,0.7 -0.1,0.7 -0.3,1.5 -0.5,2.1 -0.4,1.1 -1,2.1 -1.5,2.8 -0.7,1 -1.4,1.7 -1.8,2 z m 8.3,0.2 c -2.1,0 -4.1,-1 -5.4,-2 0.1,-0.2 0.2,-0.4 0.4,-0.6 0.1,-0.1 0.2,-0.3 0.3,-0.4 0.2,-0.3 0.3,-0.7 0.5,-1 0,-0.1 0.1,-0.2 0.1,-0.3 0.2,-0.4 0.3,-0.8 0.4,-1.2 0,-0.1 0,-0.2 0.1,-0.4 0.1,-0.2 0.1,-0.5 0.2,-0.7 1.2,-0.6 2.4,-0.9 3.6,-0.9 3.5,0 6.600004,2.8 7.500004,3.8 -1.1,1 -4.200004,3.7 -7.700004,3.7 z"
     id="path2"
     inkscape:connector-curvature="0"
     style="fill:#dde9af" /></svg>